<svg width="112" height="113" viewBox="0 0 112 113" fill="none" xmlns="http://www.w3.org/2000/svg">
<path d="M75.9265 60.5039C75.9265 51.0036 68.2247 43.3018 58.7244 43.3018C49.2242 43.3018 41.5223 51.0036 41.5223 60.5039C41.5223 70.0041 49.2242 77.706 58.7244 77.706C68.2247 77.706 75.9265 70.0041 75.9265 60.5039ZM58.7244 69.144C53.9547 69.144 50.0843 65.2735 50.0843 60.5039C50.0843 55.7342 53.9547 51.8637 58.7244 51.8637C63.4941 51.8637 67.3645 55.7342 67.3645 60.5039C67.3645 65.2735 63.4941 69.144 58.7244 69.144Z" fill="black"/>
<path d="M34.043 24.3522C35.8386 23.1219 37.7122 22.0283 39.6639 21.0909C44.4652 18.767 49.7543 17.3219 55.3363 16.9118V23.3562C50.9254 23.7468 46.7292 24.899 42.9038 26.6761C40.9326 27.594 39.0394 28.6876 37.2633 29.9374C35.1945 31.402 33.2623 33.062 31.5448 34.8977C29.6516 36.9091 30.081 40.1509 32.4816 41.5374C34.1796 42.5138 36.3265 42.2404 37.6537 40.8148C38.8442 39.5455 40.1323 38.3933 41.5376 37.3387C43.2746 36.0499 45.1678 34.9563 47.1781 34.0775C49.7348 32.9643 52.4672 32.2222 55.3363 31.8903C56.4097 31.7731 57.4831 31.695 58.5956 31.695C59.7081 31.695 60.7816 31.7536 61.855 31.8903C64.724 32.2222 67.476 32.9643 70.0132 34.0775C72.0235 34.9563 73.9166 36.0499 75.6537 37.3387C77.0589 38.3738 78.347 39.5455 79.5376 40.8148C80.8648 42.2404 83.0312 42.5138 84.7096 41.5374C87.1103 40.1509 87.5396 36.9091 85.6465 34.8977C83.9094 33.062 81.9967 31.402 79.9279 29.9374C78.1519 28.6876 76.2782 27.594 74.2875 26.6761C70.4621 24.8795 66.2659 23.7273 61.855 23.3562V16.9118C67.4369 17.3219 72.7261 18.767 77.5273 21.0909C79.4986 22.0478 81.3722 23.1414 83.1483 24.3522C86.5443 26.6761 89.6085 29.4687 92.2238 32.6323C93.6876 34.4094 96.2053 34.8977 98.196 33.7455C100.694 32.3004 101.319 28.961 99.4842 26.7347C96.1467 22.6923 92.2238 19.1381 87.8324 16.2283C86.0368 15.037 84.1436 13.9434 82.1919 12.967C76.005 9.88149 69.1154 7.96768 61.8355 7.51852V3.26128C61.8355 1.46465 60.3717 0 58.5761 0C56.7805 0 55.3167 1.46465 55.3167 3.26128V7.53805C48.0368 7.98721 41.1668 9.90102 34.9603 12.9865C33.0086 13.963 31.1349 15.037 29.3198 16.2478C24.9284 19.1576 21.0055 22.7118 17.668 26.7542C15.8334 28.9805 16.458 32.3199 18.9562 33.765C20.9469 34.9172 23.4647 34.429 24.9284 32.6519C27.5438 29.4882 30.5884 26.6956 34.0039 24.3717L34.043 24.3522Z" fill="#229AAB"/>
<path d="M111.638 57.2863C111.305 51.9014 110.171 46.7124 108.372 41.8757C107.355 39.1735 104.148 38.0378 101.664 39.4868C99.6698 40.6421 98.829 43.0702 99.6503 45.2437C101.058 49.0425 101.958 53.0763 102.271 57.2668C102.349 58.3437 102.408 59.4403 102.408 60.5369C102.408 61.6334 102.349 62.73 102.271 63.807C101.86 69.4073 100.413 74.7138 98.0859 79.5309L92.4735 76.2804C94.2726 72.4424 95.4264 68.2324 95.7979 63.807C95.8957 62.73 95.9543 61.653 95.9543 60.5369C95.9543 59.4207 95.8957 58.3437 95.7979 57.2668C95.5828 54.7016 95.0939 52.1952 94.3704 49.7866C93.5686 47.1431 90.5375 45.8899 88.1518 47.2802C86.4505 48.2593 85.6292 50.2762 86.1963 52.156C86.7047 53.8008 87.0567 55.5044 87.2523 57.2668C87.3696 58.3437 87.4478 59.4207 87.4478 60.5369C87.4478 61.653 87.3891 62.73 87.2523 63.807C86.9198 66.6854 86.1767 69.4464 85.0621 71.992C84.1821 74.0089 83.087 75.9083 81.7963 77.6511C80.1146 79.9421 78.0808 81.959 75.8124 83.643C74.072 84.9354 72.1752 86.0319 70.161 86.9131C68.577 87.5984 66.9148 88.1467 65.2135 88.5579C63.3166 88.9887 61.9869 90.7315 61.9869 92.6896C61.9869 95.4114 64.49 97.4675 67.1299 96.8605C69.7699 96.2534 72.1165 95.431 74.4436 94.3345C76.4186 93.4141 78.3155 92.3176 80.095 91.0644C83.6345 88.5775 86.7243 85.4836 89.2078 81.9394L94.8201 85.1703C91.75 89.6937 87.8389 93.5904 83.3412 96.6647C81.5421 97.8983 79.6648 98.9949 77.7093 99.9348C74.0525 101.697 70.1219 102.97 65.9957 103.655C63.7077 104.027 62.026 105.966 62.026 108.296C62.026 111.194 64.6268 113.407 67.4623 112.937C72.7423 112.056 77.768 110.411 82.4026 108.081C84.3581 107.102 86.2354 106.025 88.054 104.811C93.9793 100.875 99.0441 95.7835 102.975 89.8699C104.168 88.0684 105.263 86.169 106.24 84.2108C109.33 78.0035 111.247 71.0913 111.696 63.7874C111.755 62.7104 111.814 61.6138 111.814 60.5173C111.814 59.4207 111.775 58.3242 111.696 57.2472L111.638 57.2863Z" fill="#00ABB9"/>
<path d="M41.5414 83.6507C41.3058 83.4746 41.0701 83.2984 40.8345 83.1026C39.1067 81.7323 37.536 80.1857 36.1813 78.4826C35.9653 78.2085 35.7493 77.9345 35.5333 77.6604C34.2375 75.9181 33.138 74.0192 32.2544 72.0028C32.1366 71.7092 32.0188 71.4351 31.901 71.1415C31.096 69.1447 30.5266 67.0305 30.1929 64.8379C30.1339 64.5051 30.0947 64.1528 30.0554 63.82C29.9376 62.7433 29.8591 61.6666 29.8591 60.5507C29.8591 59.4349 29.918 58.3582 30.0554 57.2815C30.2518 55.5196 30.6052 53.8165 31.1157 52.1721C31.685 50.2927 30.8408 48.2764 29.1522 47.2976C26.7569 45.9077 23.7136 47.1605 22.9086 49.8033C22.1821 52.1916 21.7109 54.6974 21.4753 57.2815C21.3771 58.3582 21.3182 59.4349 21.3182 60.5507C21.3182 61.6666 21.3771 62.7433 21.4753 63.82C21.5735 64.9162 21.7109 65.9929 21.9073 67.0696L15.644 68.7532C15.3298 67.1284 15.1139 65.4839 14.9961 63.82C14.9175 62.7433 14.8586 61.647 14.8586 60.5507C14.8586 59.4544 14.9175 58.3582 14.9961 57.2815C15.3102 53.0726 16.2134 49.0399 17.627 45.2421C18.432 43.0691 17.627 40.6416 15.6047 39.4866C13.0915 38.038 9.87156 39.1734 8.87022 41.8749C7.04425 46.7103 5.90547 51.8784 5.59132 57.2815C5.53242 58.3582 5.47352 59.4544 5.47352 60.5507C5.47352 61.647 5.51279 62.7433 5.59132 63.82C5.7484 66.3257 6.06254 68.8119 6.55339 71.2002L2.43023 72.3161C0.682798 72.7859 -0.357809 74.5673 0.113409 76.3096C0.584627 78.0519 2.37133 79.0895 4.11877 78.6196L8.26156 77.5038C9.04693 79.8138 9.96973 82.0651 11.0496 84.2184C12.0313 86.1761 13.1112 88.0554 14.3285 89.876C15.7029 91.9511 17.2343 93.9283 18.8836 95.7685L15.8403 98.8028C14.5641 100.075 14.5641 102.15 15.8403 103.423C17.1165 104.695 19.1978 104.695 20.474 103.423L23.5173 100.388C25.3432 101.994 27.2674 103.482 29.3093 104.813C31.1157 106.007 33.0202 107.103 34.9836 108.082C39.6369 110.392 44.6828 112.056 49.984 112.937C52.8506 113.407 55.4423 111.195 55.4423 108.297C55.4423 105.987 53.7341 104.049 51.4566 103.658C47.3138 102.973 43.3477 101.7 39.6958 99.9382C37.7127 98.979 35.8278 97.8827 34.0411 96.669C32.706 95.7489 31.4298 94.7701 30.1929 93.713L34.7676 89.1321C35.5726 89.7977 36.4169 90.4437 37.2808 91.0506C39.0675 92.3035 40.9523 93.3997 42.955 94.3198C45.2915 95.3965 47.7457 96.2579 50.2982 96.8452C52.8506 97.4324 55.4619 95.3965 55.4619 92.6754C55.4619 90.7178 54.1268 88.9755 52.2223 88.5448C50.4945 88.1533 48.8452 87.6052 47.2549 86.9004C45.2326 86.0195 43.3281 84.9232 41.5806 83.6312L41.5414 83.6507ZM22.457 85.1777C21.2201 83.3767 20.1206 81.4973 19.1781 79.5397C18.4713 78.0911 17.8626 76.6033 17.3325 75.0763L23.5958 73.3928C23.9688 74.3912 24.3812 75.3504 24.8131 76.3096C25.7359 78.2868 26.8354 80.1857 28.092 81.9672C28.7203 82.8677 29.3879 83.729 30.0947 84.5708L25.5199 89.1517C24.4401 87.8988 23.3995 86.5872 22.4767 85.2168L22.457 85.1777Z" fill="#147D87"/>
</svg>
