<svg width="371" height="90" viewBox="0 0 371 90" fill="none" xmlns="http://www.w3.org/2000/svg">
<rect width="371" height="90" fill="white"/>
<path d="M193.675 44.8032C193.675 39.3385 189.244 34.9082 183.78 34.9082C178.315 34.9082 173.885 39.3385 173.885 44.8032C173.885 50.268 178.315 54.6982 183.78 54.6982C189.244 54.6982 193.675 50.268 193.675 44.8032ZM183.78 49.7732C181.036 49.7732 178.81 47.5468 178.81 44.8032C178.81 42.0596 181.036 39.8332 183.78 39.8332C186.523 39.8332 188.75 42.0596 188.75 44.8032C188.75 47.5468 186.523 49.7732 183.78 49.7732Z" fill="black"/>
<path d="M169.582 24.0079C170.615 23.3002 171.693 22.6711 172.816 22.1319C175.577 20.7952 178.62 19.9639 181.831 19.728V23.435C179.293 23.6597 176.88 24.3224 174.679 25.3447C173.545 25.8726 172.456 26.5017 171.435 27.2206C170.245 28.0631 169.133 29.0179 168.145 30.0739C167.056 31.2309 167.303 33.0956 168.684 33.8932C169.661 34.4549 170.896 34.2976 171.659 33.4776C172.344 32.7474 173.085 32.0846 173.893 31.478C174.892 30.7366 175.981 30.1076 177.138 29.6021C178.609 28.9618 180.18 28.5349 181.831 28.344C182.448 28.2766 183.066 28.2316 183.705 28.2316C184.345 28.2316 184.963 28.2653 185.58 28.344C187.231 28.5349 188.814 28.9618 190.273 29.6021C191.429 30.1076 192.518 30.7366 193.518 31.478C194.326 32.0734 195.067 32.7474 195.752 33.4776C196.515 34.2976 197.761 34.4549 198.727 33.8932C200.108 33.0956 200.355 31.2309 199.266 30.0739C198.266 29.0179 197.166 28.0631 195.976 27.2206C194.955 26.5017 193.877 25.8726 192.732 25.3447C190.531 24.3112 188.118 23.6484 185.58 23.435V19.728C188.791 19.9639 191.834 20.7952 194.595 22.1319C195.729 22.6824 196.807 23.3114 197.829 24.0079C199.782 25.3447 201.545 26.951 203.049 28.7708C203.891 29.793 205.339 30.0739 206.484 29.4111C207.921 28.5799 208.281 26.659 207.225 25.3784C205.306 23.0531 203.049 21.0086 200.523 19.3349C199.49 18.6496 198.401 18.0206 197.279 17.4589C193.72 15.684 189.757 14.5832 185.569 14.3248V11.876C185.569 10.8425 184.727 10 183.694 10C182.661 10 181.819 10.8425 181.819 11.876V14.336C177.632 14.5944 173.68 15.6953 170.11 17.4701C168.987 18.0318 167.909 18.6496 166.865 19.3461C164.339 21.0199 162.083 23.0643 160.163 25.3896C159.108 26.6702 159.467 28.5911 160.904 29.4223C162.049 30.0851 163.497 29.8043 164.339 28.782C165.844 26.9623 167.595 25.3559 169.56 24.0191L169.582 24.0079Z" fill="#229AAB"/>
<path d="M214.216 42.9524C214.025 39.8548 213.373 36.87 212.338 34.0878C211.753 32.5335 209.908 31.8802 208.48 32.7137C207.332 33.3782 206.849 34.7749 207.321 36.0252C208.131 38.2104 208.648 40.5307 208.828 42.9411C208.873 43.5606 208.907 44.1914 208.907 44.8221C208.907 45.4529 208.873 46.0837 208.828 46.7032C208.592 49.9246 207.76 52.977 206.421 55.7479L203.193 53.8781C204.228 51.6704 204.891 49.2487 205.105 46.7032C205.161 46.0837 205.195 45.4642 205.195 44.8221C205.195 44.1801 205.161 43.5606 205.105 42.9411C204.981 41.4656 204.7 40.0238 204.284 38.6384C203.823 37.1178 202.079 36.3969 200.707 37.1966C199.728 37.7598 199.256 38.92 199.582 40.0013C199.874 40.9474 200.077 41.9274 200.189 42.9411C200.257 43.5606 200.302 44.1801 200.302 44.8221C200.302 45.4642 200.268 46.0837 200.189 46.7032C199.998 48.3589 199.571 49.9471 198.929 51.4114C198.423 52.5715 197.793 53.6641 197.051 54.6666C196.084 55.9844 194.914 57.1446 193.609 58.1133C192.608 58.8567 191.517 59.4874 190.358 59.9943C189.447 60.3885 188.491 60.7039 187.512 60.9404C186.421 61.1882 185.656 62.1907 185.656 63.3171C185.656 64.8827 187.096 66.0654 188.615 65.7162C190.133 65.3671 191.483 64.894 192.822 64.2632C193.958 63.7338 195.049 63.1031 196.072 62.3822C198.108 60.9517 199.886 59.172 201.314 57.1333L204.543 58.9918C202.777 61.5937 200.527 63.8352 197.94 65.6036C196.905 66.3132 195.825 66.944 194.7 67.4846C192.597 68.4984 190.336 69.2305 187.962 69.6247C186.646 69.8387 185.679 70.9538 185.679 72.2942C185.679 73.9612 187.175 75.234 188.806 74.9637C191.843 74.4568 194.734 73.5107 197.4 72.1703C198.525 71.6071 199.604 70.9876 200.651 70.2893C204.059 68.0253 206.972 65.0967 209.233 61.6951C209.919 60.6588 210.549 59.5663 211.112 58.4399C212.889 54.8693 213.991 50.8932 214.25 46.6919C214.284 46.0724 214.318 45.4416 214.318 44.8109C214.318 44.1801 214.295 43.5493 214.25 42.9298L214.216 42.9524Z" fill="#00ABB9"/>
<path d="M173.895 58.1177C173.76 58.0164 173.624 57.915 173.489 57.8024C172.495 57.0142 171.592 56.1246 170.812 55.1449C170.688 54.9872 170.564 54.8296 170.44 54.6719C169.694 53.6697 169.062 52.5775 168.553 51.4176C168.486 51.2487 168.418 51.091 168.35 50.9221C167.887 49.7735 167.56 48.5574 167.368 47.2962C167.334 47.1048 167.311 46.9021 167.289 46.7106C167.221 46.0913 167.176 45.472 167.176 44.8301C167.176 44.1882 167.209 43.5689 167.289 42.9496C167.401 41.9361 167.605 40.9564 167.898 40.0105C168.226 38.9295 167.74 37.7696 166.769 37.2066C165.391 36.4071 163.641 37.1278 163.178 38.648C162.76 40.0218 162.489 41.4631 162.353 42.9496C162.297 43.5689 162.263 44.1882 162.263 44.8301C162.263 45.472 162.297 46.0913 162.353 46.7106C162.41 47.3412 162.489 47.9606 162.602 48.5799L158.999 49.5483C158.818 48.6137 158.694 47.6678 158.626 46.7106C158.581 46.0913 158.547 45.4607 158.547 44.8301C158.547 44.1995 158.581 43.5689 158.626 42.9496C158.807 40.5285 159.326 38.2088 160.139 36.0242C160.602 34.7743 160.139 33.378 158.976 32.7136C157.531 31.8803 155.678 32.5334 155.102 34.0874C154.052 36.8688 153.397 39.8416 153.216 42.9496C153.182 43.5689 153.148 44.1995 153.148 44.8301C153.148 45.4607 153.171 46.0913 153.216 46.7106C153.307 48.152 153.487 49.5821 153.77 50.9559L151.398 51.5978C150.393 51.868 149.794 52.8928 150.065 53.895C150.336 54.8972 151.364 55.494 152.369 55.2237L154.752 54.5819C155.204 55.9106 155.735 57.2056 156.356 58.4443C156.921 59.5703 157.542 60.6514 158.242 61.6986C159.033 62.8923 159.914 64.0296 160.862 65.0881L159.112 66.8335C158.378 67.5654 158.378 68.7591 159.112 69.491C159.846 70.223 161.043 70.223 161.777 69.491L163.528 67.7456C164.578 68.669 165.685 69.5248 166.859 70.2905C167.898 70.9774 168.994 71.608 170.123 72.1711C172.8 73.4998 175.703 74.457 178.752 74.9637C180.401 75.234 181.892 73.9615 181.892 72.2949C181.892 70.9662 180.909 69.8514 179.599 69.6261C177.216 69.232 174.935 68.5001 172.834 67.4866C171.693 66.9348 170.609 66.3042 169.581 65.6061C168.813 65.0768 168.079 64.5138 167.368 63.9057L169.999 61.2707C170.462 61.6536 170.948 62.0252 171.445 62.3743C172.472 63.0949 173.557 63.7255 174.709 64.2548C176.053 64.8741 177.464 65.3696 178.933 65.7074C180.401 66.0452 181.903 64.8741 181.903 63.3089C181.903 62.1828 181.135 61.1806 180.039 60.9329C179.046 60.7077 178.097 60.3924 177.182 59.987C176.019 59.4803 174.923 58.8497 173.918 58.1065L173.895 58.1177ZM162.918 58.996C162.206 57.9601 161.574 56.879 161.032 55.753C160.625 54.9197 160.275 54.0639 159.97 53.1855L163.573 52.2171C163.787 52.7914 164.025 53.3432 164.273 53.895C164.804 55.0323 165.436 56.1246 166.159 57.1493C166.521 57.6673 166.905 58.1628 167.311 58.647L164.68 61.282C164.058 60.5613 163.46 59.8068 162.929 59.0186L162.918 58.996Z" fill="#147D87"/>
<path d="M224.64 33H222.333L225.848 22.8182H228.622L232.132 33H229.825L227.275 25.1449H227.195L224.64 33ZM224.496 28.9979H229.945V30.6783H224.496V28.9979Z" fill="#229AAB"/>
<path d="M238.359 29.8778V25.3636H239.532V33H238.359V31.7074H238.279C238.1 32.0952 237.822 32.425 237.444 32.6967C237.066 32.9652 236.589 33.0994 236.012 33.0994C235.535 33.0994 235.111 32.995 234.74 32.7862C234.368 32.5741 234.077 32.2559 233.865 31.8317C233.653 31.4041 233.547 30.8655 233.547 30.2159V25.3636H234.72V30.1364C234.72 30.6932 234.876 31.1373 235.187 31.4688C235.502 31.8002 235.903 31.9659 236.39 31.9659C236.682 31.9659 236.979 31.8913 237.28 31.7422C237.585 31.593 237.84 31.3643 238.046 31.0561C238.255 30.7479 238.359 30.3551 238.359 29.8778ZM245.002 25.3636V26.358H241.045V25.3636H245.002ZM242.198 23.5341H243.372V30.8125C243.372 31.1439 243.42 31.3925 243.516 31.5582C243.615 31.7206 243.741 31.83 243.894 31.8864C244.049 31.9394 244.213 31.9659 244.386 31.9659C244.515 31.9659 244.621 31.9593 244.704 31.946C244.787 31.9295 244.853 31.9162 244.903 31.9062L245.142 32.9602C245.062 32.9901 244.951 33.0199 244.808 33.0497C244.666 33.0829 244.485 33.0994 244.267 33.0994C243.935 33.0994 243.61 33.0282 243.292 32.8857C242.977 32.7431 242.715 32.526 242.507 32.2344C242.301 31.9427 242.198 31.5748 242.198 31.1307V23.5341ZM249.787 33.1591C249.098 33.1591 248.493 32.995 247.973 32.6669C247.456 32.3388 247.051 31.8797 246.76 31.2898C246.471 30.6998 246.327 30.0104 246.327 29.2216C246.327 28.4261 246.471 27.7318 246.76 27.1385C247.051 26.5452 247.456 26.0845 247.973 25.7564C248.493 25.4283 249.098 25.2642 249.787 25.2642C250.477 25.2642 251.08 25.4283 251.597 25.7564C252.117 26.0845 252.522 26.5452 252.81 27.1385C253.102 27.7318 253.248 28.4261 253.248 29.2216C253.248 30.0104 253.102 30.6998 252.81 31.2898C252.522 31.8797 252.117 32.3388 251.597 32.6669C251.08 32.995 250.477 33.1591 249.787 33.1591ZM249.787 32.1051C250.311 32.1051 250.742 31.9709 251.08 31.7024C251.418 31.4339 251.668 31.081 251.831 30.6435C251.993 30.206 252.074 29.732 252.074 29.2216C252.074 28.7112 251.993 28.2356 251.831 27.7947C251.668 27.3539 251.418 26.9976 251.08 26.7259C250.742 26.4541 250.311 26.3182 249.787 26.3182C249.264 26.3182 248.833 26.4541 248.495 26.7259C248.157 26.9976 247.907 27.3539 247.744 27.7947C247.582 28.2356 247.501 28.7112 247.501 29.2216C247.501 29.732 247.582 30.206 247.744 30.6435C247.907 31.081 248.157 31.4339 248.495 31.7024C248.833 31.9709 249.264 32.1051 249.787 32.1051ZM256.212 28.4062V33H255.039V25.3636H256.172V26.5568H256.272C256.451 26.169 256.722 25.8575 257.087 25.6222C257.452 25.3835 257.922 25.2642 258.499 25.2642C259.016 25.2642 259.468 25.3703 259.856 25.5824C260.244 25.7912 260.546 26.1094 260.761 26.5369C260.976 26.9612 261.084 27.4981 261.084 28.1477V33H259.911V28.2273C259.911 27.6274 259.755 27.16 259.444 26.8253C259.132 26.4872 258.704 26.3182 258.161 26.3182C257.786 26.3182 257.452 26.3994 257.157 26.5618C256.865 26.7242 256.635 26.9612 256.466 27.2727C256.297 27.5843 256.212 27.9621 256.212 28.4062ZM266.33 33.1591C265.641 33.1591 265.036 32.995 264.516 32.6669C263.999 32.3388 263.594 31.8797 263.303 31.2898C263.014 30.6998 262.87 30.0104 262.87 29.2216C262.87 28.4261 263.014 27.7318 263.303 27.1385C263.594 26.5452 263.999 26.0845 264.516 25.7564C265.036 25.4283 265.641 25.2642 266.33 25.2642C267.02 25.2642 267.623 25.4283 268.14 25.7564C268.66 26.0845 269.065 26.5452 269.353 27.1385C269.645 27.7318 269.791 28.4261 269.791 29.2216C269.791 30.0104 269.645 30.6998 269.353 31.2898C269.065 31.8797 268.66 32.3388 268.14 32.6669C267.623 32.995 267.02 33.1591 266.33 33.1591ZM266.33 32.1051C266.854 32.1051 267.285 31.9709 267.623 31.7024C267.961 31.4339 268.211 31.081 268.374 30.6435C268.536 30.206 268.617 29.732 268.617 29.2216C268.617 28.7112 268.536 28.2356 268.374 27.7947C268.211 27.3539 267.961 26.9976 267.623 26.7259C267.285 26.4541 266.854 26.3182 266.33 26.3182C265.807 26.3182 265.376 26.4541 265.038 26.7259C264.7 26.9976 264.45 27.3539 264.287 27.7947C264.125 28.2356 264.044 28.7112 264.044 29.2216C264.044 29.732 264.125 30.206 264.287 30.6435C264.45 31.081 264.7 31.4339 265.038 31.7024C265.376 31.9709 265.807 32.1051 266.33 32.1051ZM271.582 33V25.3636H272.715V26.5568H272.815C272.974 26.1491 273.231 25.8326 273.585 25.6072C273.94 25.3786 274.366 25.2642 274.863 25.2642C275.367 25.2642 275.786 25.3786 276.121 25.6072C276.459 25.8326 276.722 26.1491 276.911 26.5568H276.991C277.186 26.1624 277.48 25.8492 277.871 25.6172C278.262 25.3819 278.731 25.2642 279.278 25.2642C279.96 25.2642 280.519 25.478 280.953 25.9055C281.387 26.3298 281.604 26.991 281.604 27.8892V33H280.431V27.8892C280.431 27.3258 280.277 26.9231 279.969 26.6811C279.661 26.4392 279.298 26.3182 278.88 26.3182C278.343 26.3182 277.927 26.4806 277.632 26.8054C277.337 27.1269 277.19 27.5346 277.19 28.0284V33H275.996V27.7699C275.996 27.3357 275.856 26.986 275.574 26.7209C275.292 26.4524 274.929 26.3182 274.485 26.3182C274.18 26.3182 273.895 26.3994 273.63 26.5618C273.368 26.7242 273.156 26.9496 272.994 27.2379C272.835 27.523 272.755 27.8527 272.755 28.2273V33H271.582ZM286.852 33.1591C286.163 33.1591 285.558 32.995 285.037 32.6669C284.52 32.3388 284.116 31.8797 283.824 31.2898C283.536 30.6998 283.392 30.0104 283.392 29.2216C283.392 28.4261 283.536 27.7318 283.824 27.1385C284.116 26.5452 284.52 26.0845 285.037 25.7564C285.558 25.4283 286.163 25.2642 286.852 25.2642C287.541 25.2642 288.145 25.4283 288.662 25.7564C289.182 26.0845 289.586 26.5452 289.875 27.1385C290.166 27.7318 290.312 28.4261 290.312 29.2216C290.312 30.0104 290.166 30.6998 289.875 31.2898C289.586 31.8797 289.182 32.3388 288.662 32.6669C288.145 32.995 287.541 33.1591 286.852 33.1591ZM286.852 32.1051C287.376 32.1051 287.806 31.9709 288.145 31.7024C288.483 31.4339 288.733 31.081 288.895 30.6435C289.058 30.206 289.139 29.732 289.139 29.2216C289.139 28.7112 289.058 28.2356 288.895 27.7947C288.733 27.3539 288.483 26.9976 288.145 26.7259C287.806 26.4541 287.376 26.3182 286.852 26.3182C286.328 26.3182 285.897 26.4541 285.559 26.7259C285.221 26.9976 284.971 27.3539 284.809 27.7947C284.646 28.2356 284.565 28.7112 284.565 29.2216C284.565 29.732 284.646 30.206 284.809 30.6435C284.971 31.081 285.221 31.4339 285.559 31.7024C285.897 31.9709 286.328 32.1051 286.852 32.1051ZM296.916 29.8778V25.3636H298.089V33H296.916V31.7074H296.836C296.657 32.0952 296.379 32.425 296.001 32.6967C295.623 32.9652 295.146 33.0994 294.569 33.0994C294.092 33.0994 293.668 32.995 293.296 32.7862C292.925 32.5741 292.633 32.2559 292.421 31.8317C292.209 31.4041 292.103 30.8655 292.103 30.2159V25.3636H293.276V30.1364C293.276 30.6932 293.432 31.1373 293.744 31.4688C294.059 31.8002 294.46 31.9659 294.947 31.9659C295.239 31.9659 295.535 31.8913 295.837 31.7422C296.142 31.593 296.397 31.3643 296.602 31.0561C296.811 30.7479 296.916 30.3551 296.916 29.8778ZM305.647 27.0739L304.593 27.3722C304.527 27.1965 304.429 27.0258 304.3 26.8601C304.174 26.6911 304.001 26.5518 303.783 26.4425C303.564 26.3331 303.284 26.2784 302.942 26.2784C302.475 26.2784 302.086 26.3861 301.774 26.6016C301.466 26.8137 301.312 27.0838 301.312 27.4119C301.312 27.7036 301.418 27.9339 301.63 28.103C301.842 28.272 302.174 28.4129 302.624 28.5256L303.758 28.804C304.441 28.9697 304.949 29.2232 305.284 29.5646C305.619 29.9027 305.786 30.3385 305.786 30.8722C305.786 31.3097 305.66 31.7008 305.408 32.0455C305.16 32.3902 304.812 32.6619 304.364 32.8608C303.917 33.0597 303.397 33.1591 302.803 33.1591C302.024 33.1591 301.38 32.9901 300.869 32.652C300.359 32.3139 300.036 31.8201 299.9 31.1705L301.013 30.892C301.12 31.303 301.32 31.6113 301.615 31.8168C301.913 32.0223 302.303 32.125 302.783 32.125C303.33 32.125 303.764 32.009 304.086 31.777C304.411 31.5417 304.573 31.2599 304.573 30.9318C304.573 30.6667 304.48 30.4446 304.295 30.2656C304.109 30.0833 303.824 29.9474 303.44 29.858L302.167 29.5597C301.468 29.3939 300.954 29.1371 300.626 28.7891C300.301 28.4377 300.138 27.9986 300.138 27.4716C300.138 27.0407 300.259 26.6596 300.501 26.3281C300.747 25.9967 301.08 25.7365 301.501 25.5476C301.925 25.3587 302.406 25.2642 302.942 25.2642C303.698 25.2642 304.291 25.4299 304.722 25.7614C305.156 26.0928 305.465 26.5303 305.647 27.0739ZM233.421 45.4062V50H232.248V39.8182H233.421V43.5568H233.52C233.699 43.1624 233.968 42.8492 234.326 42.6172C234.687 42.3819 235.168 42.2642 235.768 42.2642C236.288 42.2642 236.744 42.3686 237.135 42.5774C237.526 42.7829 237.829 43.0994 238.045 43.527C238.263 43.9512 238.373 44.4915 238.373 45.1477V50H237.199V45.2273C237.199 44.6207 237.042 44.1518 236.727 43.8203C236.416 43.4856 235.983 43.3182 235.43 43.3182C235.045 43.3182 234.7 43.3994 234.395 43.5618C234.094 43.7242 233.855 43.9612 233.68 44.2727C233.507 44.5843 233.421 44.9621 233.421 45.4062ZM240.519 50V42.3636H241.692V50H240.519ZM241.116 41.0909C240.887 41.0909 240.69 41.013 240.524 40.8572C240.362 40.7015 240.281 40.5142 240.281 40.2955C240.281 40.0767 240.362 39.8894 240.524 39.7337C240.69 39.5779 240.887 39.5 241.116 39.5C241.344 39.5 241.54 39.5779 241.702 39.7337C241.868 39.8894 241.951 40.0767 241.951 40.2955C241.951 40.5142 241.868 40.7015 241.702 40.8572C241.54 41.013 241.344 41.0909 241.116 41.0909ZM243.841 52.8636V42.3636H244.975V43.5767H245.114C245.2 43.4441 245.32 43.2751 245.472 43.0696C245.628 42.8608 245.85 42.6752 246.138 42.5128C246.43 42.3471 246.824 42.2642 247.322 42.2642C247.965 42.2642 248.531 42.425 249.022 42.7464C249.512 43.0679 249.895 43.5237 250.17 44.1136C250.445 44.7036 250.583 45.3996 250.583 46.2017C250.583 47.0104 250.445 47.7114 250.17 48.3047C249.895 48.8946 249.514 49.352 249.027 49.6768C248.54 49.9983 247.978 50.1591 247.341 50.1591C246.851 50.1591 246.458 50.0779 246.163 49.9155C245.868 49.7498 245.641 49.5625 245.482 49.3537C245.323 49.1416 245.2 48.9659 245.114 48.8267H245.015V52.8636H243.841ZM244.995 46.1818C244.995 46.7585 245.079 47.2673 245.248 47.7081C245.417 48.1456 245.664 48.4886 245.989 48.7372C246.314 48.9825 246.712 49.1051 247.182 49.1051C247.673 49.1051 248.082 48.9759 248.41 48.7173C248.742 48.4555 248.99 48.1042 249.156 47.6634C249.325 47.2192 249.41 46.7254 249.41 46.1818C249.41 45.6449 249.327 45.161 249.161 44.7301C248.999 44.2959 248.752 43.9529 248.42 43.701C248.092 43.4458 247.68 43.3182 247.182 43.3182C246.705 43.3182 246.304 43.4392 245.979 43.6811C245.654 43.9197 245.409 44.2545 245.243 44.6854C245.078 45.1129 244.995 45.6117 244.995 46.1818ZM232.138 67V59.3636H233.272V60.517H233.351C233.491 60.1392 233.742 59.8326 234.107 59.5973C234.472 59.362 234.883 59.2443 235.34 59.2443C235.426 59.2443 235.534 59.246 235.663 59.2493C235.792 59.2526 235.89 59.2576 235.956 59.2642V60.4574C235.917 60.4474 235.826 60.4325 235.683 60.4126C235.544 60.3894 235.396 60.3778 235.241 60.3778C234.869 60.3778 234.538 60.4557 234.246 60.6115C233.958 60.764 233.729 60.9761 233.56 61.2479C233.394 61.5163 233.312 61.8229 233.312 62.1676V67H232.138ZM240.217 67.1591C239.528 67.1591 238.923 66.995 238.403 66.6669C237.885 66.3388 237.481 65.8797 237.189 65.2898C236.901 64.6998 236.757 64.0104 236.757 63.2216C236.757 62.4261 236.901 61.7318 237.189 61.1385C237.481 60.5452 237.885 60.0845 238.403 59.7564C238.923 59.4283 239.528 59.2642 240.217 59.2642C240.907 59.2642 241.51 59.4283 242.027 59.7564C242.547 60.0845 242.952 60.5452 243.24 61.1385C243.532 61.7318 243.677 62.4261 243.677 63.2216C243.677 64.0104 243.532 64.6998 243.24 65.2898C242.952 65.8797 242.547 66.3388 242.027 66.6669C241.51 66.995 240.907 67.1591 240.217 67.1591ZM240.217 66.1051C240.741 66.1051 241.172 65.9709 241.51 65.7024C241.848 65.4339 242.098 65.081 242.26 64.6435C242.423 64.206 242.504 63.732 242.504 63.2216C242.504 62.7112 242.423 62.2356 242.26 61.7947C242.098 61.3539 241.848 60.9976 241.51 60.7259C241.172 60.4541 240.741 60.3182 240.217 60.3182C239.693 60.3182 239.263 60.4541 238.925 60.7259C238.586 60.9976 238.336 61.3539 238.174 61.7947C238.011 62.2356 237.93 62.7112 237.93 63.2216C237.93 63.732 238.011 64.206 238.174 64.6435C238.336 65.081 238.586 65.4339 238.925 65.7024C239.263 65.9709 239.693 66.1051 240.217 66.1051ZM245.468 59.3636H246.642V67.5568C246.642 68.0275 246.56 68.4351 246.398 68.7798C246.239 69.1245 245.997 69.3913 245.672 69.5803C245.351 69.7692 244.945 69.8636 244.454 69.8636C244.414 69.8636 244.375 69.8636 244.335 69.8636C244.295 69.8636 244.255 69.8636 244.216 69.8636V68.7699C244.255 68.7699 244.292 68.7699 244.325 68.7699C244.358 68.7699 244.395 68.7699 244.434 68.7699C244.792 68.7699 245.054 68.6638 245.22 68.4517C245.386 68.2429 245.468 67.9446 245.468 67.5568V59.3636ZM246.045 58.0909C245.816 58.0909 245.619 58.013 245.453 57.8572C245.291 57.7015 245.21 57.5142 245.21 57.2955C245.21 57.0767 245.291 56.8894 245.453 56.7337C245.619 56.5779 245.816 56.5 246.045 56.5C246.274 56.5 246.469 56.5779 246.632 56.7337C246.797 56.8894 246.88 57.0767 246.88 57.2955C246.88 57.5142 246.797 57.7015 246.632 57.8572C246.469 58.013 246.274 58.0909 246.045 58.0909ZM251.992 67.1591C251.257 67.1591 250.622 66.9967 250.088 66.6719C249.558 66.3438 249.149 65.8864 248.86 65.2997C248.575 64.7098 248.433 64.0237 248.433 63.2415C248.433 62.4593 248.575 61.7699 248.86 61.1733C249.149 60.5734 249.55 60.1061 250.063 59.7713C250.58 59.4332 251.184 59.2642 251.873 59.2642C252.271 59.2642 252.664 59.3305 253.051 59.4631C253.439 59.5956 253.792 59.8111 254.11 60.1094C254.428 60.4044 254.682 60.7955 254.871 61.2827C255.06 61.7699 255.154 62.3698 255.154 63.0824V63.5795H249.268V62.5653H253.961C253.961 62.1345 253.875 61.75 253.703 61.4119C253.534 61.0739 253.292 60.8071 252.977 60.6115C252.665 60.416 252.297 60.3182 251.873 60.3182C251.406 60.3182 251.001 60.4342 250.66 60.6662C250.322 60.8949 250.062 61.1932 249.879 61.5611C249.697 61.929 249.606 62.3234 249.606 62.7443V63.4205C249.606 63.9972 249.705 64.486 249.904 64.8871C250.106 65.2848 250.387 65.5881 250.744 65.7969C251.102 66.0024 251.518 66.1051 251.992 66.1051C252.301 66.1051 252.579 66.062 252.828 65.9759C253.079 65.8864 253.297 65.7538 253.479 65.5781C253.661 65.3991 253.802 65.1771 253.901 64.9119L255.035 65.2301C254.916 65.6146 254.715 65.9527 254.433 66.2443C254.152 66.5327 253.804 66.758 253.389 66.9205C252.975 67.0795 252.509 67.1591 251.992 67.1591ZM260.041 67.1591C259.325 67.1591 258.709 66.9901 258.192 66.652C257.675 66.3139 257.277 65.8482 256.999 65.255C256.72 64.6617 256.581 63.9839 256.581 63.2216C256.581 62.446 256.724 61.7616 257.009 61.1683C257.297 60.5717 257.698 60.1061 258.212 59.7713C258.729 59.4332 259.332 59.2642 260.021 59.2642C260.558 59.2642 261.042 59.3636 261.473 59.5625C261.904 59.7614 262.257 60.0398 262.532 60.3977C262.807 60.7557 262.978 61.1733 263.044 61.6506H261.871C261.781 61.3026 261.583 60.9943 261.274 60.7259C260.969 60.4541 260.558 60.3182 260.041 60.3182C259.584 60.3182 259.183 60.4375 258.838 60.6761C258.497 60.9115 258.23 61.2446 258.038 61.6754C257.849 62.103 257.754 62.6051 257.754 63.1818C257.754 63.7718 257.847 64.2855 258.033 64.723C258.222 65.1605 258.487 65.5002 258.828 65.7422C259.173 65.9841 259.577 66.1051 260.041 66.1051C260.346 66.1051 260.623 66.0521 260.872 65.946C261.12 65.84 261.331 65.6875 261.503 65.4886C261.675 65.2898 261.798 65.0511 261.871 64.7727H263.044C262.978 65.2235 262.814 65.6295 262.552 65.9908C262.294 66.3487 261.95 66.6338 261.523 66.8459C261.099 67.0547 260.605 67.1591 260.041 67.1591ZM268.08 59.3636V60.358H264.123V59.3636H268.08ZM265.276 57.5341H266.45V64.8125C266.45 65.1439 266.498 65.3925 266.594 65.5582C266.693 65.7206 266.819 65.83 266.972 65.8864C267.128 65.9394 267.292 65.9659 267.464 65.9659C267.593 65.9659 267.699 65.9593 267.782 65.946C267.865 65.9295 267.931 65.9162 267.981 65.9062L268.22 66.9602C268.14 66.9901 268.029 67.0199 267.887 67.0497C267.744 67.0829 267.563 67.0994 267.345 67.0994C267.013 67.0994 266.688 67.0282 266.37 66.8857C266.055 66.7431 265.794 66.526 265.585 66.2344C265.379 65.9427 265.276 65.5748 265.276 65.1307V57.5341Z" fill="#B3B3B3"/>
<path d="M228.408 42.7464C228.369 42.3454 228.198 42.0339 227.896 41.8118C227.595 41.5897 227.185 41.4787 226.668 41.4787C226.317 41.4787 226.02 41.5284 225.778 41.6278C225.536 41.724 225.351 41.8582 225.222 42.0305C225.096 42.2029 225.033 42.3984 225.033 42.6172C225.026 42.7995 225.064 42.9586 225.147 43.0945C225.233 43.2304 225.351 43.348 225.5 43.4474C225.649 43.5436 225.821 43.6281 226.017 43.701C226.213 43.7706 226.421 43.8303 226.643 43.88L227.558 44.0987C228.002 44.1982 228.41 44.3307 228.781 44.4964C229.152 44.6622 229.474 44.866 229.746 45.108C230.018 45.3499 230.228 45.6349 230.377 45.9631C230.53 46.2912 230.607 46.6674 230.611 47.0916C230.607 47.7147 230.448 48.255 230.134 48.7124C229.822 49.1664 229.371 49.5194 228.781 49.7713C228.195 50.0199 227.487 50.1442 226.658 50.1442C225.836 50.1442 225.121 50.0182 224.511 49.7663C223.904 49.5144 223.43 49.1416 223.089 48.6477C222.751 48.1506 222.573 47.5357 222.557 46.8033H224.64C224.663 47.1446 224.761 47.4297 224.933 47.6584C225.109 47.8838 225.343 48.0545 225.634 48.1705C225.929 48.2831 226.262 48.3395 226.634 48.3395C226.998 48.3395 227.315 48.2865 227.583 48.1804C227.855 48.0743 228.065 47.9268 228.214 47.7379C228.364 47.549 228.438 47.3319 228.438 47.0866C228.438 46.858 228.37 46.6657 228.234 46.5099C228.102 46.3542 227.906 46.2216 227.648 46.1122C227.393 46.0028 227.079 45.9034 226.708 45.8139L225.599 45.5355C224.741 45.3267 224.063 45.0002 223.566 44.5561C223.069 44.112 222.822 43.5137 222.825 42.7614C222.822 42.1449 222.986 41.6063 223.317 41.1456C223.652 40.6849 224.111 40.3253 224.695 40.0668C225.278 39.8082 225.941 39.679 226.683 39.679C227.439 39.679 228.098 39.8082 228.662 40.0668C229.229 40.3253 229.67 40.6849 229.984 41.1456C230.299 41.6063 230.462 42.1399 230.472 42.7464H228.408Z" fill="#00ABB9"/>
<path d="M222.885 67V56.8182H226.902C227.674 56.8182 228.332 56.9657 228.876 57.2607C229.419 57.5523 229.834 57.9583 230.119 58.4787C230.407 58.9957 230.551 59.5923 230.551 60.2685C230.551 60.9446 230.405 61.5412 230.114 62.0582C229.822 62.5753 229.399 62.978 228.846 63.2663C228.296 63.5547 227.629 63.6989 226.847 63.6989H224.287V61.9737H226.499C226.914 61.9737 227.255 61.9025 227.523 61.7599C227.795 61.6141 227.997 61.4136 228.13 61.1584C228.266 60.8999 228.334 60.6032 228.334 60.2685C228.334 59.9304 228.266 59.6354 228.13 59.3835C227.997 59.1283 227.795 58.9311 227.523 58.7919C227.252 58.6494 226.907 58.5781 226.489 58.5781H225.038V67H222.885Z" fill="#147D87"/>
</svg>
