<svg width="246" height="246" viewBox="0 0 246 246" fill="none" xmlns="http://www.w3.org/2000/svg">
<g clip-path="url(#clip0_19_75)">
<path d="M209.975 36.0251C186.741 12.7954 155.854 0 122.998 0C90.1415 0 59.2595 12.7954 36.0251 36.0251C12.7954 59.2595 0 90.1463 0 122.998C0 155.849 12.7954 186.741 36.0251 209.97C59.2547 233.2 90.1463 245.995 122.998 245.995C155.849 245.995 186.741 233.2 209.97 209.97C233.2 186.741 245.995 155.849 245.995 122.998C245.995 90.1463 233.2 59.2547 209.97 36.0251H209.975ZM217.255 167.87L211.495 165.06L211.285 165.49L217.039 168.295C216.843 168.697 216.647 169.103 216.452 169.505L210.744 166.599L210.529 167.024L216.241 169.935C216.04 170.336 215.83 170.728 215.62 171.13L209.97 168.128L209.746 168.549L215.4 171.555C215.19 171.952 214.979 172.344 214.764 172.741L209.167 169.639L208.938 170.059L214.535 173.161C214.32 173.553 214.109 173.95 213.885 174.337L208.34 171.135L207.394 170.59V165.055H214.387L217.814 166.651C217.627 167.057 217.441 167.464 217.245 167.87H217.255ZM206.925 208.273C194.871 220.141 180.747 229.151 165.365 234.964V218.932C171.923 216.036 178.18 212.446 184.059 208.216H206.925V208.273ZM39.7533 208.216H61.9457C67.8965 212.499 74.2393 216.122 80.8879 219.037V235.054C65.6978 229.352 51.7218 220.538 39.7533 208.933V208.216ZM39.2753 208.465C39.1893 208.383 39.1032 208.297 39.022 208.216H39.2753V208.465ZM37.5546 170.943L31.9575 174.045C31.7376 173.654 31.5225 173.262 31.3074 172.87L36.9571 169.868L36.7325 169.447L31.078 172.454C30.8629 172.057 30.6574 171.66 30.4519 171.264L36.1541 168.358L35.939 167.932L30.2368 170.838C30.0312 170.442 29.8257 170.045 29.625 169.643L35.3798 166.838L35.1695 166.407L29.4147 169.213C29.2139 168.812 29.0179 168.41 28.8267 168.004L35.1599 165.05H39.2896V171.923L32.88 175.623C32.6553 175.236 32.4259 174.853 32.2013 174.461L37.7984 171.359L37.5689 170.939L37.5546 170.943ZM3.35061 123.237H18.187C18.2205 137.691 21.16 151.691 26.7284 164.577H10.7449C5.91734 151.518 3.37929 137.571 3.35061 123.237ZM218.703 81.3038L212.809 83.8083L212.996 84.2481L218.894 81.7435C219.071 82.1545 219.252 82.5656 219.425 82.9767L213.483 85.3761L213.665 85.8206L219.606 83.4212C219.778 83.837 219.941 84.2529 220.103 84.6687L214.124 86.963L214.296 87.4075L220.28 85.1084C220.443 85.5243 220.6 85.9449 220.753 86.3655L210.448 90.1176L210.611 90.5669L214.898 89.004L220.916 86.8148C221.069 87.2354 221.227 87.6561 221.375 88.0767L215.319 90.1607L215.476 90.6147L221.532 88.5308C221.681 88.9514 221.829 89.3768 221.967 89.8022L215.878 91.781L216.026 92.2351L222.12 90.2562C222.259 90.6816 222.393 91.1118 222.527 91.5372L216.409 93.4061L216.547 93.865L222.67 91.9913C222.804 92.4215 222.933 92.8469 223.057 93.2771L216.906 95.0408L217.039 95.4996L223.191 93.7359C223.315 94.1661 223.444 94.5963 223.564 95.0265L217.384 96.685L212.977 97.8656L213.101 98.3293L223.688 95.4901C223.808 95.9203 223.918 96.3552 224.032 96.7902L217.833 98.3388L217.948 98.8025L224.156 97.2538C224.266 97.6888 224.367 98.1237 224.472 98.5587L218.249 99.9974L218.354 100.461L224.582 99.0223C224.682 99.4573 224.787 99.8923 224.883 100.332L218.636 101.661L218.736 102.129L224.983 100.8C225.079 101.24 225.17 101.675 225.261 102.115L218.994 103.334L219.085 103.802L225.356 102.583C225.442 103.023 225.519 103.463 225.6 103.902L219.319 105.011L214.826 105.805L214.908 106.273L225.686 104.371C225.767 104.811 225.839 105.25 225.915 105.695L219.621 106.694L219.697 107.167L225.992 106.168C226.064 106.613 226.14 107.052 226.202 107.497L219.888 108.386L219.955 108.859L226.269 107.97C226.331 108.415 226.393 108.859 226.451 109.304L220.132 110.078L220.189 110.551L226.513 109.777C226.57 110.221 226.618 110.666 226.666 111.11L220.342 111.775L220.39 112.248L226.718 111.584C226.766 112.028 226.814 112.473 226.857 112.922L220.519 113.476L215.974 113.873L216.017 114.351L226.9 113.4C226.938 113.844 226.981 114.289 227.015 114.738L220.672 115.183L220.706 115.661L227.053 115.216C227.087 115.661 227.106 116.11 227.134 116.554L220.792 116.889L220.815 117.367L227.163 117.032C227.187 117.477 227.211 117.926 227.23 118.376L220.882 118.595L220.901 119.073L227.249 118.854C227.268 119.303 227.287 119.747 227.297 120.197L220.945 120.307L220.954 120.785L227.306 120.675C227.316 121.124 227.321 121.568 227.321 122.018H216.409V122.496H227.325C227.325 122.587 227.325 122.677 227.325 122.768H207.394V82.9671L207.442 83.0675L211.528 81.1604H214.554L212.097 82.2549L212.293 82.6899L215.73 81.1604H218.626C218.65 81.2129 218.669 81.2607 218.693 81.3133L218.703 81.3038ZM227.33 123.834L220.983 123.724L220.973 124.202L227.321 124.312C227.316 124.761 227.316 125.211 227.302 125.655L220.949 125.435L220.93 125.913L227.282 126.133C227.268 126.582 227.254 127.027 227.235 127.476L220.892 127.146L220.868 127.624L227.216 127.959C227.196 128.408 227.168 128.853 227.139 129.302L220.801 128.858L220.768 129.336L227.106 129.78C227.077 130.229 227.048 130.674 227.015 131.118L216.136 130.167L216.093 130.645L220.639 131.042L226.972 131.596C226.934 132.041 226.9 132.49 226.857 132.935L220.533 132.27L220.486 132.744L226.819 133.408C226.776 133.852 226.723 134.297 226.671 134.741L220.357 133.967L220.299 134.44L226.618 135.215C226.565 135.659 226.513 136.104 226.456 136.548L220.151 135.664L220.084 136.137L226.389 137.021C226.331 137.466 226.274 137.91 226.207 138.355L219.912 137.356L219.836 137.829L226.135 138.828C226.068 139.273 225.997 139.712 225.925 140.152L219.649 139.043L215.156 138.25L215.075 138.718L225.853 140.621C225.777 141.06 225.696 141.505 225.619 141.945L219.362 140.726L219.272 141.194L225.533 142.413C225.452 142.853 225.371 143.292 225.285 143.732L219.037 142.403L218.937 142.872L225.184 144.201C225.093 144.64 225.003 145.08 224.907 145.515L218.684 144.076L218.579 144.54L224.811 145.979C224.716 146.414 224.606 146.849 224.501 147.284L218.306 145.74L218.191 146.203L224.395 147.752C224.29 148.187 224.18 148.622 224.07 149.057L213.488 146.222L213.364 146.686L217.771 147.867L223.946 149.521C223.831 149.955 223.722 150.39 223.602 150.821L217.451 149.057L217.317 149.516L223.468 151.279C223.349 151.71 223.22 152.14 223.095 152.57L216.977 150.701L216.839 151.16L222.962 153.034C222.833 153.464 222.699 153.889 222.565 154.319L216.48 152.341L216.332 152.795L222.421 154.773C222.288 155.199 222.154 155.629 222.01 156.054L215.954 153.97L215.797 154.425L221.853 156.509C221.709 156.934 221.566 157.359 221.418 157.78L211.113 154.028L210.95 154.477L215.237 156.04L221.265 158.234C221.112 158.655 220.954 159.075 220.796 159.496L214.817 157.202L214.645 157.646L220.629 159.94C220.471 160.361 220.309 160.777 220.146 161.193L214.21 158.793L214.028 159.238L219.969 161.637C219.802 162.053 219.64 162.469 219.472 162.885L213.569 160.38L213.383 160.82L219.286 163.324C219.114 163.736 218.937 164.147 218.755 164.558L212.905 161.953L212.709 162.388L217.632 164.582H214.497L212.212 163.516L208.077 161.585L207.877 162.02L213.369 164.582H207.399V123.241H227.33C227.33 123.442 227.325 123.638 227.321 123.834H227.33ZM206.925 170.867V174.28L206.615 174.088L206.361 174.495L206.925 174.848V176.33L205.711 175.542L205.453 175.943L206.925 176.899V178.424L204.784 176.98L204.516 177.377L206.925 179.002V180.57L200.09 175.785L199.818 176.177L203.556 178.797L206.925 181.158V182.769L202.848 179.805L202.566 180.192L206.925 183.356V185.015L201.845 181.186L201.558 181.569L206.648 185.402C206.381 185.761 206.108 186.114 205.836 186.473L200.822 182.553L200.525 182.931L205.544 186.855C205.272 187.209 204.99 187.558 204.708 187.907L199.765 183.906L199.464 184.279L204.411 188.284C204.129 188.633 203.852 188.982 203.565 189.326L195.196 182.305L194.89 182.673L198.389 185.608L203.259 189.694C202.973 190.039 202.686 190.383 202.394 190.722L197.595 186.554L197.28 186.913L202.084 191.09C201.792 191.429 201.491 191.759 201.195 192.094L196.477 187.845L196.157 188.198L200.879 192.452C200.583 192.787 200.282 193.117 199.98 193.451L195.335 189.121L195.01 189.47L199.655 193.8C199.35 194.13 199.048 194.46 198.742 194.785L194.173 190.373L193.843 190.717L198.413 195.134C198.102 195.459 197.787 195.774 197.476 196.095L192.988 191.606L189.761 188.38L189.422 188.719L192.648 191.946L197.141 196.439C197.022 196.558 196.907 196.682 196.788 196.802C196.592 196.998 196.391 197.189 196.19 197.385L191.778 192.82L191.434 193.155L195.846 197.724C195.526 198.035 195.205 198.355 194.885 198.661L190.55 194.015L190.201 194.34L194.536 198.986C194.211 199.292 193.881 199.598 193.552 199.899L189.302 195.182L188.949 195.502L193.203 200.229C192.873 200.53 192.534 200.826 192.199 201.123L188.031 196.329L187.673 196.644L191.841 201.438C191.506 201.735 191.167 202.031 190.827 202.323L186.741 197.452L183.806 193.953L183.438 194.259L190.459 202.628C190.12 202.92 189.776 203.207 189.432 203.494L185.431 198.551L185.058 198.852L189.068 203.799C188.724 204.086 188.37 204.359 188.021 204.641L184.107 199.627L183.729 199.923L187.649 204.942C187.3 205.219 186.946 205.496 186.592 205.769L182.764 200.683L182.381 200.97L186.215 206.056C185.861 206.328 185.503 206.6 185.144 206.868L181.397 201.711L181.01 201.993L184.757 207.15C184.475 207.356 184.193 207.561 183.906 207.762H183.543L177.391 198.977L176.999 199.249L179.619 202.987L182.96 207.757H181.349L178.61 203.694L178.213 203.962L180.775 207.757H179.212L177.195 204.65L176.794 204.908L178.644 207.752H177.119L175.761 205.582L175.355 205.836L176.555 207.752H175.073L174.313 206.491L173.902 206.739L174.514 207.757H173.066L170.566 203.422L170.15 203.661L172.43 207.614L172.511 207.757H165.361V171.971C167.813 169.849 170.102 167.54 172.21 165.074H206.921V170.332L204.392 168.869L204.153 169.285L206.921 170.881L206.925 170.867ZM172.874 214.697L169.873 209.048L169.452 209.272L172.459 214.927C172.062 215.142 171.665 215.347 171.268 215.553L168.362 209.851L167.937 210.066L170.843 215.768C170.446 215.974 170.05 216.179 169.648 216.38L166.842 210.625L166.412 210.835L169.218 216.59C168.816 216.791 168.415 216.987 168.009 217.178L165.361 211.5V208.206H171.359L170.943 208.436L174.045 214.033C173.654 214.253 173.262 214.468 172.87 214.683L172.874 214.697ZM164.696 218.703L162.192 212.809L161.752 212.996L164.257 218.894C163.845 219.071 163.434 219.252 163.023 219.425L160.624 213.483L160.179 213.665L162.579 219.606C162.163 219.778 161.747 219.941 161.331 220.103L159.037 214.124L158.592 214.296L160.892 220.28C160.476 220.443 160.055 220.6 159.634 220.753L155.882 210.448L155.433 210.611L156.996 214.898L159.185 220.916C158.765 221.069 158.344 221.227 157.923 221.375L155.839 215.319L155.385 215.476L157.469 221.532C157.049 221.681 156.623 221.829 156.198 221.967L154.219 215.878L153.765 216.026L155.744 222.12C155.318 222.259 154.888 222.393 154.463 222.527L152.594 216.409L152.135 216.547L154.009 222.67C153.579 222.804 153.153 222.933 152.723 223.057L150.959 216.91L150.5 217.044L152.264 223.196C151.834 223.32 151.404 223.449 150.974 223.569L148.134 212.977L147.671 213.101L148.851 217.508L150.505 223.688C150.075 223.808 149.64 223.918 149.205 224.032L147.656 217.833L147.193 217.948L148.741 224.156C148.306 224.266 147.871 224.367 147.437 224.472L145.998 218.249L145.534 218.354L146.973 224.582C146.538 224.682 146.103 224.787 145.663 224.883L144.334 218.636L143.866 218.736L145.195 224.983C144.755 225.079 144.32 225.17 143.88 225.261L142.662 218.994L142.193 219.085L143.412 225.356C142.972 225.442 142.533 225.519 142.093 225.6L140.195 214.826L139.727 214.908L140.52 219.401L141.629 225.681C141.189 225.762 140.745 225.834 140.305 225.911L139.306 219.616L138.833 219.692L139.832 225.987C139.392 226.059 138.948 226.135 138.503 226.197L137.614 219.883L137.141 219.95L138.03 226.26C137.585 226.322 137.141 226.384 136.696 226.441L135.922 220.122L135.449 220.18L136.223 226.503C135.779 226.561 135.334 226.609 134.89 226.656L134.225 220.328L133.752 220.38L134.416 226.709C133.972 226.757 133.527 226.804 133.083 226.848L132.528 220.51L132.132 215.964L131.654 216.007L132.605 226.891C132.16 226.929 131.716 226.972 131.267 227.005L130.822 220.662L130.344 220.696L130.789 227.043C130.344 227.077 129.895 227.096 129.45 227.125L129.116 220.782L128.638 220.806L128.972 227.153C128.528 227.177 128.079 227.201 127.629 227.22L127.409 220.873L126.931 220.892L127.151 227.239C126.702 227.259 126.257 227.278 125.808 227.287L125.698 220.935L125.22 220.945L125.33 227.297C124.881 227.306 124.436 227.311 123.987 227.311V216.399H123.509V227.316C123.418 227.316 123.327 227.316 123.237 227.316V208.197H163.296L164.864 211.562L164.878 211.595V214.626L163.745 212.088L163.31 212.284L164.878 215.801V218.598C164.816 218.626 164.754 218.65 164.687 218.679L164.696 218.703ZM121.798 220.978L121.688 227.325C121.239 227.321 120.789 227.321 120.345 227.306L120.565 220.954L120.087 220.935L119.867 227.287C119.418 227.273 118.973 227.259 118.524 227.239L118.858 220.897L118.38 220.873L118.046 227.22C117.596 227.201 117.152 227.173 116.707 227.144L117.152 220.806L116.674 220.772L116.229 227.11C115.78 227.082 115.336 227.053 114.891 227.02L115.446 220.686L115.842 216.141L115.364 216.098L114.413 226.981C113.969 226.943 113.519 226.91 113.075 226.867L113.739 220.543L113.266 220.49L112.602 226.824C112.157 226.781 111.713 226.728 111.268 226.675L112.042 220.361L111.569 220.304L110.795 226.623C110.35 226.57 109.906 226.518 109.461 226.46L110.346 220.156L109.872 220.089L108.988 226.393C108.544 226.336 108.099 226.279 107.655 226.212L108.654 219.917L108.18 219.84L107.181 226.14C106.737 226.073 106.297 226.001 105.853 225.93L107.75 215.161L107.282 215.08L106.488 219.573L105.379 225.853C104.94 225.777 104.495 225.696 104.055 225.619L105.274 219.362L104.806 219.272L103.587 225.533C103.147 225.452 102.708 225.371 102.268 225.285L103.597 219.037L103.128 218.937L101.799 225.184C101.36 225.093 100.92 225.003 100.485 224.907L101.924 218.684L101.46 218.579L100.021 224.811C99.5816 224.716 99.1514 224.606 98.7116 224.501L100.256 218.306L99.7919 218.191L98.2432 224.395C97.8083 224.29 97.3733 224.18 96.9384 224.07L99.7728 213.488L99.3091 213.364L98.1285 217.771L96.4747 223.946C96.0398 223.831 95.6048 223.722 95.1746 223.602L96.9384 217.451L96.4795 217.317L94.7158 223.468C94.2856 223.349 93.8554 223.22 93.4252 223.095L95.2941 216.977L94.8353 216.839L92.9616 222.962C92.5314 222.833 92.106 222.699 91.6758 222.565L93.6547 216.48L93.2006 216.332L91.2218 222.421C90.7964 222.288 90.3662 222.154 89.9408 222.01L92.0248 215.954L91.5707 215.797L89.4867 221.853C89.0613 221.709 88.6359 221.566 88.2153 221.418L91.9674 211.113L91.5181 210.95L89.9551 215.237L87.7612 221.265C87.3406 221.112 86.92 220.954 86.4994 220.796L88.7936 214.817L88.3491 214.645L86.0548 220.624C85.6342 220.467 85.2184 220.304 84.8025 220.142L87.202 214.205L86.7575 214.023L84.358 219.965C83.9422 219.797 83.5263 219.635 83.1105 219.468L85.6151 213.569L85.1754 213.383L82.6708 219.281C82.2597 219.109 81.8486 218.932 81.4376 218.751L84.0426 212.9L83.6076 212.704L81.3563 217.761V214.616L82.4796 212.202L84.3437 208.202H122.754V227.321C122.553 227.321 122.357 227.316 122.161 227.311L122.271 220.964L121.793 220.954L121.798 220.978ZM78.9712 210.534L76.0604 216.246C75.6589 216.045 75.2669 215.835 74.8654 215.625L77.8671 209.975L77.4465 209.75L74.44 215.405C74.0433 215.194 73.6514 214.984 73.2546 214.769L76.3567 209.172L75.9361 208.943L72.834 214.54C72.4421 214.325 72.0453 214.114 71.6582 213.89L74.8606 208.345L74.9371 208.216H80.8831V211.471L80.5055 211.289L77.6998 217.044C77.2983 216.848 76.892 216.652 76.4905 216.456L79.3966 210.749L78.9712 210.534ZM63.5565 208.78C63.2888 208.594 63.0212 208.407 62.7535 208.221H63.9484L63.5565 208.78ZM64.5316 208.221H66.1328L65.0573 209.812C64.6845 209.564 64.3165 209.306 63.9484 209.052L64.5316 208.221ZM66.7064 208.221H68.2598L66.5773 210.807C66.1997 210.563 65.8269 210.319 65.4493 210.075L66.7016 208.221H66.7064ZM68.8334 208.221H70.3485L68.1212 211.782C67.7388 211.547 67.3612 211.308 66.9836 211.07L68.8334 208.221ZM70.9126 208.221H72.3895L69.6794 212.733C69.297 212.503 68.9146 212.269 68.5322 212.035L70.9126 208.221ZM72.9487 208.221H74.3874L71.2519 213.651C70.8648 213.426 70.4776 213.201 70.0904 212.972L72.9487 208.216V208.221ZM38.5536 162.942L35.0404 164.582H32.0435L33.8981 163.755L33.7021 163.32L30.8677 164.582H27.5744L33.1954 162.196L33.009 161.757L27.1108 164.261C26.934 163.85 26.7523 163.439 26.5803 163.028L32.5215 160.629L32.3399 160.184L26.3986 162.584C26.2266 162.168 26.064 161.752 25.9015 161.336L31.881 159.042L31.7089 158.597L25.7247 160.896C25.5622 160.481 25.4044 160.06 25.2515 159.639L35.5566 155.887L35.3941 155.438L31.1067 157.001L25.089 159.19C24.936 158.769 24.7783 158.349 24.6301 157.928L30.6861 155.844L30.5283 155.39L24.4724 157.474C24.3242 157.053 24.176 156.628 24.0374 156.203L30.1268 154.224L29.9787 153.77L23.8845 155.749C23.7459 155.323 23.612 154.893 23.4782 154.468L29.5963 152.599L29.4577 152.14L23.3348 154.013C23.201 153.588 23.0719 153.158 22.9476 152.728L29.0992 150.964L28.9654 150.505L22.8138 152.269C22.6895 151.839 22.5605 151.409 22.441 150.978L28.6212 149.32L33.0282 148.139L32.9039 147.676L22.3167 150.515C22.1972 150.085 22.0873 149.65 21.9726 149.215L28.1719 147.671L28.0572 147.207L21.8483 148.756C21.7384 148.321 21.638 147.886 21.5328 147.451L27.7561 146.012L27.6509 145.549L21.4229 146.987C21.3225 146.552 21.2174 146.117 21.1218 145.678L27.3689 144.349L27.2685 143.88L21.0214 145.209C20.9258 144.769 20.835 144.334 20.7442 143.895L27.0104 142.676L26.9196 142.207L20.6486 143.426C20.5625 142.987 20.4861 142.547 20.4048 142.107L26.6854 140.998L31.1784 140.205L31.0971 139.736L20.3188 141.639C20.2375 141.199 20.1658 140.759 20.0893 140.315L26.3843 139.316L26.3078 138.843L20.0129 139.842C19.9412 139.397 19.8647 138.957 19.8026 138.513L26.1166 137.624L26.0497 137.15L19.7356 138.04C19.6735 137.595 19.6114 137.15 19.554 136.706L25.8729 135.932L25.8155 135.458L19.4919 136.233C19.4345 135.788 19.3867 135.344 19.3389 134.899L25.6625 134.235L25.6147 133.762L19.2863 134.426C19.2385 133.982 19.1907 133.537 19.1477 133.088L25.4857 132.533L30.0312 132.137L29.9882 131.659L19.1047 132.61C19.0665 132.165 19.0235 131.721 18.99 131.271L25.3327 130.827L25.2993 130.349L18.9518 130.793C18.9183 130.349 18.8992 129.9 18.8705 129.455L25.2132 129.12L25.1893 128.643L18.8418 128.977C18.8179 128.533 18.794 128.083 18.7749 127.634L25.1224 127.414L25.1033 126.936L18.7558 127.156C18.7367 126.707 18.7175 126.262 18.708 125.813L25.0603 125.703L25.0507 125.225L18.6984 125.335C18.6889 124.886 18.6841 124.441 18.6841 123.992H29.5963V123.514H18.6793C18.6793 123.423 18.6793 123.332 18.6793 123.241H39.2896V164.582H36.1876L38.7734 163.377L38.5727 162.942H38.5536ZM18.6745 122.166L25.0221 122.276L25.0316 121.798L18.6841 121.688C18.6889 121.239 18.6889 120.794 18.7032 120.345L25.0555 120.565L25.0746 120.087L18.7223 119.867C18.7367 119.418 18.751 118.973 18.7701 118.524L25.1129 118.858L25.1368 118.38L18.7892 118.046C18.8084 117.596 18.837 117.152 18.8657 116.707L25.2037 117.152L25.2371 116.674L18.8992 116.229C18.9279 115.78 18.9565 115.336 18.99 114.891L29.8687 115.842L29.9118 115.364L25.3662 114.968L19.033 114.413C19.0713 113.969 19.1047 113.519 19.1477 113.075L25.4714 113.739L25.5191 113.266L19.186 112.602C19.229 112.157 19.2816 111.713 19.3341 111.268L25.6482 112.042L25.7056 111.569L19.3867 110.795C19.4393 110.35 19.4919 109.906 19.5492 109.461L25.8537 110.346L25.9206 109.872L19.6161 108.988C19.6735 108.544 19.7309 108.099 19.7978 107.655L26.0927 108.654L26.1692 108.18L19.8695 107.181C19.9364 106.737 20.0081 106.297 20.0798 105.853L26.3556 106.957L30.8486 107.75L30.9298 107.282L20.1515 105.379C20.228 104.94 20.3092 104.495 20.3857 104.055L26.6424 105.274L26.7332 104.806L20.4717 103.587C20.553 103.147 20.6342 102.708 20.7203 102.268L26.9674 103.597L27.0678 103.128L20.8206 101.799C20.9115 101.36 21.0023 100.92 21.0979 100.485L27.3211 101.919L27.4263 101.455L21.1935 100.017C21.2891 99.5768 21.399 99.1466 21.5042 98.7069L27.6987 100.251L27.8134 99.7871L21.6093 98.2384C21.7145 97.8035 21.8244 97.3685 21.9343 96.9336L28.1098 98.5874L32.5167 99.768L32.641 99.3043L22.0586 96.4699C22.1733 96.035 22.2833 95.6 22.4027 95.1698L28.5543 96.9336L28.6881 96.4747L22.5366 94.711C22.6561 94.2808 22.7851 93.8506 22.9094 93.4204L29.0275 95.2893L29.1661 94.8305L23.0432 92.9568C23.1723 92.5266 23.3061 92.1012 23.44 91.6711L29.5246 93.6499L29.6728 93.1958L23.5833 91.217C23.7172 90.7916 23.851 90.3614 23.9944 89.936L30.0504 92.02L30.2081 91.5659L24.1521 89.4819C24.2955 89.0565 24.4389 88.6311 24.5871 88.2105L34.8923 91.9626L35.0548 91.5133L30.7673 89.9503L24.74 87.7564C24.893 87.3358 25.0507 86.9152 25.2085 86.4946L31.1832 88.7889L31.3552 88.3443L25.3758 86.0501C25.5335 85.6294 25.696 85.2136 25.8585 84.7978L31.795 87.1972L31.9766 86.7527L26.0354 84.3532C26.2027 83.9374 26.3652 83.5216 26.5325 83.1057L32.4307 85.6103L32.6171 85.1706L26.7189 82.666C26.8909 82.2549 27.0678 81.8439 27.2494 81.4328L33.0999 84.0378L33.2958 83.6028L27.7704 81.1412H30.9346L33.7977 82.4748L37.9322 84.4058L38.1329 83.9709L32.0626 81.1412H39.2801V122.749H18.6698C18.6698 122.548 18.6745 122.352 18.6793 122.156L18.6745 122.166ZM29.5485 76.4905L35.2555 79.3966L35.4706 78.9712L29.7588 76.0604C29.9595 75.6589 30.1699 75.2669 30.3802 74.8654L36.0298 77.8671L36.2545 77.4465L30.6 74.44C30.8103 74.0433 31.0207 73.6514 31.2357 73.2546L36.8328 76.3567L37.0623 75.9361L31.4652 72.834C31.6803 72.4421 31.8906 72.0453 32.1152 71.6582L39.2753 75.7927V80.668H34.6342L34.7154 80.5007L28.9606 77.695C29.1565 77.2935 29.3525 76.8873 29.5485 76.4858V76.4905ZM33.0329 70.0904L38.5105 73.3837L38.7543 72.9726L33.2719 69.6794C33.5014 69.297 33.7356 68.9146 33.9698 68.5322L39.2753 71.8446V75.2478L37.894 74.4496L32.3542 71.2519C32.5789 70.8648 32.8035 70.4776 33.0329 70.0904ZM71.5387 32.1869L74.6408 37.784L75.0614 37.5546L71.9593 31.9575C72.3513 31.7376 72.7432 31.5225 73.1351 31.3074L76.1368 36.9571L76.5574 36.7325L73.551 31.078C73.9477 30.8629 74.3444 30.6574 74.7411 30.4519L77.6472 36.1541L78.0726 35.939L75.1665 30.2368C75.5633 30.0312 75.96 29.8257 76.3615 29.625L79.1672 35.3798L79.5974 35.1695L76.7917 29.4147C77.1932 29.2139 77.5947 29.0179 78.0009 28.8267L80.8927 35.0309V38.391H73.5653L70.382 32.8752C70.7692 32.6506 71.1515 32.4211 71.5435 32.1965L71.5387 32.1869ZM82.9862 26.5803L85.3857 32.5215L85.8302 32.3399L83.4307 26.3986C83.8466 26.2266 84.2624 26.064 84.6783 25.9015L86.9725 31.881L87.4171 31.7089L85.118 25.7247C85.5338 25.5622 85.9545 25.4044 86.3751 25.2515L88.5642 31.2692L90.1272 35.5566L90.5765 35.3941L86.8244 25.0842C87.245 24.9312 87.6656 24.7735 88.0862 24.6253L90.1702 30.6813L90.6243 30.5236L88.5403 24.4676C88.9609 24.3194 89.3863 24.1713 89.8117 24.0326L91.7906 30.1221L92.2446 29.9739L90.2658 23.8797C90.6912 23.7411 91.1214 23.6072 91.5468 23.4734L93.4157 29.5915L93.8745 29.4529L92.0009 23.33C92.431 23.1962 92.8564 23.0671 93.2866 22.9429L95.0503 29.0944L95.5092 28.9606L93.7455 22.809C94.1757 22.6848 94.6058 22.5557 95.036 22.4362L96.6946 28.6164L97.8752 33.0234L98.3388 32.8991L95.4996 22.3119C95.9298 22.1924 96.3648 22.0825 96.7997 21.9678L98.3436 28.1671L98.8072 28.0524L97.2586 21.8435C97.6936 21.7336 98.1285 21.6332 98.5635 21.528L100.002 27.7513L100.466 27.6461L99.0271 21.4181C99.4621 21.3177 99.897 21.2126 100.337 21.117L101.666 27.3641L102.134 27.2638L100.805 21.0166C101.245 20.921 101.68 20.8302 102.12 20.7394L103.338 27.0057L103.807 26.9148L102.588 20.6438C103.028 20.5578 103.468 20.4813 103.907 20.4L105.016 26.6806L105.81 31.1736L106.278 31.0924L104.376 20.314C104.815 20.2327 105.26 20.161 105.7 20.0846L106.699 26.3795L107.172 26.303L106.173 20.0081C106.613 19.9364 107.057 19.8599 107.502 19.7978L108.391 26.1118L108.864 26.0449L107.975 19.7356C108.419 19.6735 108.864 19.6114 109.308 19.554L110.083 25.8729L110.556 25.8155L109.782 19.4919C110.226 19.4345 110.671 19.3867 111.115 19.3389L111.78 25.6625L112.253 25.6147L111.588 19.2863C112.033 19.2385 112.477 19.1907 112.927 19.1477L113.878 30.0312L114.356 29.9882L113.959 25.4427L113.405 19.1047C113.849 19.0665 114.294 19.0235 114.743 18.99L115.187 25.3327L115.665 25.2993L115.221 18.9518C115.665 18.9183 116.115 18.8992 116.559 18.8705L116.894 25.2132L117.372 25.1893L117.037 18.8418C117.482 18.8179 117.931 18.794 118.38 18.7749L118.6 25.1224L119.078 25.1033L118.858 18.7558C119.308 18.7367 119.752 18.7175 120.201 18.708L120.311 25.0603L120.789 25.0507L120.679 18.6984C121.129 18.6889 121.573 18.6841 122.023 18.6841V29.5963H122.501V18.6793C122.591 18.6793 122.682 18.6793 122.773 18.6793V38.3958H82.991L81.3755 34.9305V31.924L82.2597 33.9076L82.6947 33.7117L81.3755 30.7482V27.4502L83.8227 33.2098L84.2624 33.0234L81.7578 27.1251C82.1689 26.9483 82.58 26.7667 82.991 26.5946L82.9862 26.5803ZM124.207 25.0268L124.317 18.6793C124.766 18.6841 125.215 18.6841 125.66 18.6984L125.44 25.0507L125.918 25.0699L126.138 18.7175C126.587 18.7319 127.032 18.7462 127.481 18.7653L127.146 25.1081L127.624 25.132L127.959 18.7845C128.408 18.8036 128.853 18.8323 129.297 18.8609L128.853 25.1989L129.331 25.2324L129.775 18.8944C130.225 18.9231 130.669 18.9518 131.114 18.9852L130.162 29.864L130.64 29.907L131.037 25.3614L131.592 19.0282C132.036 19.0665 132.485 19.0999 132.93 19.1429L132.266 25.4666L132.739 25.5144L133.403 19.1812C133.848 19.2242 134.292 19.2768 134.737 19.3294L133.962 25.6434L134.436 25.7008L135.21 19.3819C135.654 19.4345 136.099 19.4871 136.543 19.5444L135.659 25.849L136.132 25.9159L137.017 19.6114C137.461 19.6687 137.906 19.7261 138.35 19.793L137.351 26.0879L137.824 26.1644L138.823 19.8647C139.268 19.9316 139.708 20.0033 140.152 20.075L138.255 30.8438L138.723 30.9251L139.516 26.4321L140.625 20.1515C141.065 20.228 141.51 20.3092 141.949 20.3857L140.731 26.6424L141.199 26.7332L142.418 20.4717C142.858 20.553 143.297 20.6342 143.737 20.7203L142.408 26.9674L142.877 27.0678L144.205 20.8206C144.645 20.9115 145.085 21.0023 145.52 21.0979L144.081 27.3211L144.545 27.4263L145.984 21.1935C146.423 21.2891 146.853 21.399 147.293 21.5042L145.749 27.6987L146.213 27.8134L147.762 21.6093C148.197 21.7145 148.631 21.8244 149.066 21.9343L146.232 32.5167L146.696 32.641L147.876 28.2341L149.53 22.0586C149.965 22.1733 150.4 22.2833 150.83 22.4027L149.066 28.5543L149.525 28.6881L151.289 22.5366C151.719 22.6561 152.149 22.7851 152.58 22.9094L150.711 29.0275L151.17 29.1661L153.043 23.0432C153.473 23.1723 153.899 23.3061 154.329 23.44L152.35 29.5246L152.804 29.6728L154.783 23.5833C155.208 23.7172 155.639 23.851 156.064 23.9944L153.98 30.0504L154.434 30.2081L156.518 24.1521C156.943 24.2955 157.369 24.4389 157.79 24.5871L154.037 34.8923L154.487 35.0548L156.05 30.7673L158.244 24.74C158.664 24.893 159.085 25.0507 159.505 25.2085L157.211 31.1879L157.656 31.36L159.95 25.3758C160.371 25.5335 160.786 25.696 161.202 25.8585L158.803 31.795L159.247 31.9766L161.647 26.0354C162.063 26.2027 162.478 26.3652 162.894 26.5325L160.39 32.4355L160.829 32.6219L163.334 26.7189C163.745 26.8909 164.156 27.0678 164.567 27.2494L161.962 33.0999L162.397 33.2958L164.897 27.6844V30.8534L163.525 33.7929L161.594 37.9274L162.029 38.1282L164.897 31.9814V38.3863H123.251V18.6698C123.452 18.6698 123.648 18.6745 123.844 18.6793L123.734 25.0268L124.212 25.0364L124.207 25.0268ZM167.034 35.4706L169.944 29.7588C170.346 29.9595 170.738 30.1699 171.139 30.3802L168.138 36.0298L168.558 36.2545L171.565 30.6C171.961 30.8103 172.353 31.0207 172.75 31.2357L169.648 36.8328L170.069 37.0623L173.171 31.4652C173.563 31.6803 173.959 31.8906 174.347 32.1152L170.728 38.3863H165.375V34.6533L165.504 34.7154L168.31 28.9606C168.711 29.1565 169.118 29.3525 169.519 29.5485L166.613 35.2555L167.038 35.4706H167.034ZM208.455 75.0566L214.052 71.9545C214.272 72.3465 214.487 72.7384 214.702 73.1304L209.052 76.132L209.277 76.5527L214.932 73.5462C215.147 73.9429 215.352 74.3396 215.558 74.7364L209.855 77.6425L210.071 78.0679L215.773 75.1618C215.978 75.5585 216.184 75.9552 216.385 76.3567L210.63 79.1624L210.84 79.5926L216.595 76.7869C216.796 77.1884 216.992 77.5899 217.183 77.9962L211.428 80.6824H207.399V73.6896L213.134 70.3772C213.359 70.7644 213.588 71.1468 213.813 71.5387L208.216 74.6408L208.445 75.0614L208.455 75.0566ZM187.768 122.763C187.711 106.914 181.932 92.3928 172.392 81.1556H206.925V122.763H187.763H187.768ZM163.611 207.743L163.382 207.25L162.947 207.451L163.085 207.743H123.246V187.763C139.11 187.706 153.645 181.913 164.892 172.358V207.743H163.611ZM164.892 208.221V210.486L163.836 208.221H164.892ZM123.246 187.285V177.41H130.478V176.932H123.246V165.06H164.892V171.732C153.688 181.373 139.139 187.228 123.246 187.285ZM39.7581 122.763V81.1556H73.6179C64.0823 92.3928 58.2988 106.918 58.2414 122.763H39.7533H39.7581ZM74.244 81.1556H80.8927V122.763H58.7242C58.7815 106.89 64.6224 92.3546 74.2488 81.1556H74.244ZM77.848 77.2935L80.8879 80.3956V80.6776H74.6551C75.678 79.5113 76.7439 78.3833 77.8432 77.2935H77.848ZM51.1291 47.3722L55.4644 52.0182L55.8133 51.6931L51.478 47.0472C51.8031 46.7413 52.1329 46.4354 52.4627 46.1343L56.7119 50.8519L57.0656 50.5316L52.8116 45.8045C53.1414 45.5033 53.4808 45.207 53.8153 44.9106L57.9833 49.7047L58.3418 49.3893L54.1738 44.5904C54.5084 44.2941 54.8478 43.9977 55.1871 43.7061L62.2086 52.0755L62.5766 51.7696L59.6419 48.2708L55.5552 43.4002C55.8945 43.1087 56.2387 42.8219 56.5828 42.5351L60.5835 47.4774L60.9563 47.1763L56.9509 42.2292C57.295 41.9424 57.6487 41.67 57.9976 41.388L61.9123 46.4019L62.2899 46.1056L58.3705 41.0868C58.7194 40.8096 59.0731 40.5324 59.4268 40.2599L63.2602 45.3456L63.6425 45.0588L59.8092 39.9731C60.1629 39.7007 60.5213 39.4283 60.8798 39.1606L64.6272 44.318L65.0143 44.0359L61.267 38.8786C61.267 38.8786 61.2813 38.869 61.2909 38.8642H62.8969L68.6278 47.052L69.0198 46.7795L66.4005 43.0418L63.48 38.869H65.0717L67.409 42.3344L67.8057 42.0667L65.65 38.869H67.1987L68.8286 41.3784L69.2301 41.1203L67.7722 38.8738H69.2779L70.2625 40.4463L70.6688 40.193L69.8419 38.8738H71.3093L71.7108 39.5382L72.1218 39.2944L71.8685 38.8738H73.3024L75.4581 42.6116L75.8739 42.3726L73.8569 38.8738H80.907V73.8569C79.8651 74.7507 78.8565 75.678 77.8719 76.6339L54.5944 52.8928L50.1827 48.3234C50.503 48.0127 50.8232 47.6925 51.1435 47.3866L51.1291 47.3722ZM122.768 38.8642V58.2414C107.019 58.2988 92.5792 64.0058 81.3707 73.441V38.8642H122.768ZM81.3707 38.3863V36.049L82.4605 38.3863H81.3707ZM164.892 80.6824H123.246V69.254H129.164V68.776H123.246V58.7194C139.139 58.7767 153.688 64.6319 164.892 74.2727V80.6776V80.6824ZM165.37 74.6933C167.492 76.5574 169.49 78.5554 171.354 80.6824H165.37V74.6933ZM164.242 122.768C164.113 100.217 145.797 81.9012 123.246 81.7722V81.1604H164.892V122.768H164.242ZM94.3143 94.0848L107.172 107.196C103.181 111.196 100.69 116.693 100.628 122.763H82.2501C82.3171 111.564 86.92 101.417 94.3143 94.0801V94.0848ZM81.3707 80.1996V74.0624C92.541 64.5459 106.995 58.7767 122.768 58.7194V68.776H117.037V69.254H122.768V80.6824H81.8391L81.3707 80.2044V80.1996ZM122.768 81.1556V81.7674C111.722 81.8295 101.699 86.2604 94.3238 93.4109L82.3075 81.1556H122.768ZM122.768 82.2454V88.373H119.594V88.851H122.768V98.9889H119.594V99.4669H122.768V100.624C116.856 100.686 111.488 103.052 107.516 106.866L94.6584 93.755C101.948 86.6905 111.851 82.3123 122.768 82.2501V82.2454ZM122.768 109.786V116.554C121.191 116.612 119.757 117.238 118.667 118.232L107.855 107.205C111.741 103.477 116.989 101.164 122.773 101.102V109.308H120.512V109.786H122.773H122.768ZM122.438 122.763H117.037C117.095 121.272 117.702 119.924 118.658 118.906L122.438 122.763ZM119.002 118.576C120.01 117.663 121.32 117.095 122.768 117.032V122.419L119.002 118.576ZM122.768 123.241V128.972C119.661 128.848 117.162 126.348 117.037 123.241H122.768ZM123.246 123.241H128.977C128.853 126.348 126.353 128.848 123.246 128.972V123.241ZM123.246 122.763V117.032C126.353 117.157 128.853 119.657 128.977 122.763H123.246ZM118.323 118.567C117.276 119.671 116.621 121.138 116.559 122.763H101.106C101.168 116.827 103.601 111.45 107.506 107.535L118.323 118.567ZM116.559 123.241C116.684 126.611 119.398 129.326 122.768 129.45V135.659H114.69V136.137H122.768V144.903C110.876 144.774 101.235 135.129 101.106 123.241H116.559ZM123.246 136.137H131.51V135.659H123.246V129.45C126.616 129.326 129.331 126.611 129.455 123.241H144.908C144.779 135.133 135.133 144.774 123.246 144.903V136.137ZM129.455 122.763C129.331 119.394 126.616 116.679 123.246 116.554V109.786H125.693V109.308H123.246V101.102C135.138 101.231 144.779 110.876 144.908 122.763H129.455ZM100.628 123.241C100.757 135.396 110.618 145.252 122.768 145.381V146.17H119.035V146.648H122.768V156.681H120.507V157.159H122.768V163.755C100.48 163.626 82.3792 145.525 82.2501 123.237H100.628V123.241ZM123.246 157.163H125.693V156.685H123.246V146.653H127.166V146.175H123.246V145.386C135.401 145.257 145.257 135.401 145.386 123.246H163.764C163.635 145.534 145.534 163.635 123.246 163.764V157.168V157.163ZM145.386 122.763C145.257 110.608 135.396 100.753 123.246 100.624V99.4669H126.606V98.9889H123.246V88.851H126.606V88.373H123.246V82.2454C145.534 82.3744 163.635 100.475 163.764 122.763H145.386ZM123.246 58.2414V38.8642H164.892V73.6514C153.65 64.0966 139.11 58.3035 123.246 58.2462V58.2414ZM80.8927 74.4735V79.7121L78.1921 76.9589C79.0668 76.1034 79.9654 75.2765 80.8927 74.4735ZM81.3707 81.1604H81.6383L93.9797 93.7455C86.4946 101.168 81.8391 111.435 81.7722 122.768H81.3707V81.1604ZM81.7722 123.246C81.9012 145.797 100.217 164.113 122.768 164.242V164.586H81.3707V123.246H81.7722ZM123.246 164.242C145.797 164.113 164.113 145.797 164.242 123.246H164.892V164.586H123.246V164.242ZM165.37 165.064H171.593C169.662 167.292 167.583 169.38 165.37 171.321V165.064ZM165.37 164.586V123.246H187.295C187.238 138.995 181.488 153.426 172 164.586H165.37ZM165.37 122.768V81.1604H171.77C181.392 92.3593 187.233 106.895 187.295 122.768H165.37ZM207.408 81.1604H210.41L207.408 82.5608V81.1604ZM217.403 78.4263C217.594 78.8326 217.776 79.2389 217.962 79.65L215.644 80.6824H212.57L217.407 78.4263H217.403ZM207.408 73.1351V71.6964L212.207 68.8142C212.441 69.1966 212.671 69.579 212.9 69.9662L207.408 73.1351ZM207.408 71.1372V69.6603L211.251 67.2608C211.49 67.6384 211.724 68.0208 211.959 68.4032L207.408 71.1372ZM207.408 69.0962V67.5811L210.257 65.7313C210.506 66.1041 210.749 66.4817 210.988 66.8593L207.408 69.0962ZM207.408 67.0123V65.4588L209.239 64.2257C209.492 64.5937 209.746 64.9618 209.994 65.3346L207.408 67.017V67.0123ZM207.408 64.8805V63.2793L208.202 62.7248C208.46 63.0881 208.713 63.4609 208.971 63.8289L207.408 64.8805ZM207.408 62.6961V61.6303C207.58 61.8645 207.752 62.1034 207.92 62.3377L207.408 62.6961ZM197.122 48.8826C193.475 45.2357 189.599 41.8898 185.541 38.8547H206.93V60.1772C203.957 56.2196 200.688 52.4436 197.122 48.8826ZM185.02 39.065L181.182 44.1554L181.564 44.4422L185.402 39.3518C185.761 39.6194 186.114 39.8919 186.473 40.1643L182.553 45.1783L182.931 45.4747L186.855 40.4559C187.209 40.7284 187.558 41.0104 187.907 41.2924L183.901 46.2346L184.274 46.5358L188.28 41.5887C188.629 41.8707 188.977 42.1479 189.322 42.4347L182.3 50.8041L182.668 51.11L185.603 47.6112L189.69 42.7406C190.034 43.0274 190.378 43.3142 190.717 43.6058L186.545 48.4046L186.903 48.7201L191.081 43.9165C191.42 44.208 191.75 44.5091 192.084 44.8055L187.835 49.5231L188.189 49.8434L192.443 45.121C192.777 45.4173 193.107 45.7184 193.437 46.0195L189.107 50.6655L189.455 50.9905L193.786 46.3446C194.116 46.6505 194.445 46.9516 194.771 47.2575L190.359 51.827L190.703 52.1568L195.119 47.5873C195.444 47.898 195.76 48.2135 196.08 48.5241L191.592 53.0123L188.366 56.2387L188.705 56.578L191.931 53.3517L196.424 48.8587C196.544 48.9782 196.668 49.0929 196.788 49.2124C196.984 49.4084 197.175 49.6091 197.371 49.8099L192.806 54.2216L193.136 54.5658L197.705 50.154C198.016 50.4743 198.336 50.7945 198.642 51.1148L193.996 55.45L194.321 55.7989L198.967 51.4637C199.273 51.7887 199.579 52.1185 199.88 52.4483L195.162 56.6975L195.483 57.0512L200.21 52.7973C200.511 53.1271 200.807 53.4664 201.104 53.801L196.31 57.969L196.625 58.3274L201.424 54.1595C201.72 54.4941 202.017 54.8334 202.308 55.1728L193.939 62.1943L194.245 62.5623L197.744 59.6275L202.614 55.5408C202.906 55.8802 203.192 56.2243 203.479 56.5685L198.537 60.5691L198.838 60.942L203.785 56.9317C204.072 57.2807 204.344 57.6296 204.626 57.9785L199.612 61.8931L199.909 62.2707L204.928 58.3513C205.205 58.7003 205.482 59.054 205.754 59.4077L200.669 63.241L200.956 63.6234L206.041 59.79C206.314 60.1437 206.586 60.5022 206.854 60.8607L201.696 64.608L201.978 64.9952L206.935 61.396V63.0307L198.967 68.6087L199.24 69.0006L202.977 66.3813L206.935 63.6091V65.196L203.69 67.3851L203.957 67.7818L206.935 65.7743V67.3182L204.646 68.8047L204.904 69.2062L206.93 67.887V69.3878L205.573 70.2338L205.826 70.6401L206.93 69.9518V71.4144L206.481 71.6821L206.725 72.0932L206.925 71.9737V73.4028L203.408 75.4342L203.647 75.85L206.925 73.9573V80.6728H171.985C169.94 78.3068 167.727 76.0938 165.365 74.0481V38.8595H170.442L168.855 41.6078L169.27 41.8468L170.996 38.8595H174.418L174.088 39.3852L174.495 39.6386L174.982 38.8595H176.469L175.537 40.2934L175.938 40.5515L177.038 38.8595H178.567L176.975 41.2207L177.372 41.4883L179.145 38.8595H180.718L175.781 45.9144L176.172 46.1868L178.792 42.4491L181.306 38.8595H182.921L179.8 43.1517L180.187 43.4337L183.514 38.8595H184.738C184.833 38.9312 184.929 38.9981 185.025 39.065H185.02ZM183.858 38.3815L183.935 38.2763C183.983 38.3098 184.03 38.3433 184.078 38.3815H183.858ZM183.266 38.3815H181.636L182.448 37.2248C182.816 37.4829 183.18 37.741 183.548 37.9991L183.27 38.3815H183.266ZM181.053 38.3815H179.471L180.947 36.1924C181.32 36.4409 181.688 36.699 182.056 36.9523L181.057 38.3815H181.053ZM178.892 38.3815H177.353L179.423 35.1934C179.8 35.4372 180.173 35.6809 180.551 35.9247L178.897 38.3767L178.892 38.3815ZM176.779 38.3815H175.279L177.879 34.2231C178.261 34.4573 178.639 34.6963 179.016 34.9353L176.779 38.3815ZM174.715 38.3815H173.252L176.321 33.2719C176.703 33.5014 177.085 33.7356 177.468 33.9698L174.71 38.3815H174.715ZM172.698 38.3815H171.273L171.555 37.894L174.753 32.3542C175.14 32.5789 175.527 32.8035 175.914 33.0329L172.698 38.3863V38.3815ZM165.365 33.8933V30.949L166.656 28.1815C167.062 28.3679 167.469 28.5543 167.875 28.7503L165.365 33.8981V33.8933ZM165.365 29.8162V27.584C165.652 27.7131 165.934 27.8469 166.221 27.9759L165.365 29.8114V29.8162ZM80.8879 29.6584L80.0801 27.8421C80.3478 27.7226 80.6155 27.5983 80.8879 27.4789V29.6584ZM79.6452 28.0429L80.8879 30.8342V33.8885L78.4216 28.6069C78.8278 28.4157 79.2341 28.2341 79.6452 28.0476V28.0429ZM69.9614 33.1046L73.0061 38.3815H71.5626L68.8095 33.7977C69.1918 33.5635 69.5742 33.3341 69.9614 33.1046ZM68.4032 34.051L71.0034 38.3815H69.5216L67.256 34.7584C67.6336 34.5194 68.016 34.2852 68.3984 34.051H68.4032ZM66.8593 35.0165L68.9624 38.3815H67.4424L65.7361 35.7526C66.1089 35.5041 66.4865 35.2603 66.8641 35.0213L66.8593 35.0165ZM65.3346 36.0107L66.8736 38.3815H65.3107L64.2209 36.7707C64.5889 36.5174 64.957 36.2641 65.3298 36.0155L65.3346 36.0107ZM63.8289 37.0384L64.7323 38.3815H63.1263L62.7248 37.8079C63.0881 37.5498 63.4561 37.2965 63.8289 37.0384ZM62.3377 38.0851L62.5432 38.3767H61.9314C62.0652 38.2763 62.2038 38.1807 62.3377 38.0851ZM48.8826 48.8826C45.5846 52.1807 42.5447 55.6603 39.7485 59.2929V38.8547H60.464C56.4012 41.8851 52.5296 45.2309 48.8826 48.8826ZM40.1643 59.5367L45.1783 63.4561L45.4747 63.0785L40.4559 59.1543C40.7284 58.8006 41.0104 58.4517 41.2924 58.1028L46.2346 62.1034L46.5358 61.7306L41.5887 57.7252C41.8707 57.3763 42.1479 57.0273 42.4347 56.6832L50.8041 63.7047L51.11 63.3366L47.6112 60.4019L42.7406 56.3152C43.0274 55.971 43.3142 55.6269 43.6058 55.2875L48.4046 59.4602L48.7201 59.1018L43.9165 54.9242C44.208 54.5849 44.5091 54.2551 44.8055 53.9205L49.5231 58.1697L49.8434 57.816L45.121 53.562C45.4173 53.2274 45.7184 52.8976 46.0195 52.5678L50.6655 56.8983L50.9905 56.5494L46.3446 52.2189C46.6505 51.8891 46.9516 51.5593 47.2575 51.2343L51.827 55.646L52.1568 55.3018L47.5873 50.8853C47.898 50.5603 48.2135 50.2449 48.5241 49.9246L53.0123 54.4128L56.2387 57.6391L56.578 57.2998L53.3517 54.0734L48.8587 49.5805C48.9782 49.461 49.0929 49.3367 49.2124 49.2172C49.4084 49.0212 49.6091 48.83 49.8099 48.6341L54.2216 53.2035L77.5038 76.9446C76.2946 78.1395 75.1283 79.3823 74.0098 80.6728H39.7437V76.0747L41.5983 77.1454L41.8373 76.7295L39.7437 75.5202V70.1095L40.2838 70.4585L40.5419 70.057L39.7437 69.536V68.0304L41.2111 69.0198L41.4788 68.623L39.7437 67.452V65.9034L45.9048 70.2195L46.1773 69.8275L42.4395 67.2082L39.7437 65.3202V63.7286L43.1469 66.1997L43.4289 65.8125L39.7485 63.1359V61.4916L44.1554 64.8088L44.4422 64.4264L39.7485 60.8894V60.0673C39.8871 59.8856 40.0257 59.704 40.1643 59.5224V59.5367ZM39.0602 60.985L39.2705 61.1427V62.7965L38.2763 62.0748C38.5392 61.7115 38.7973 61.3482 39.065 60.985H39.0602ZM37.9943 62.4619L39.2705 63.3892V64.9952L37.22 63.5565C37.4733 63.1885 37.7362 62.8252 37.9943 62.4571V62.4619ZM36.9476 63.9532L39.2705 65.5783V67.1413L36.1876 65.0621C36.4361 64.6893 36.6942 64.3213 36.9476 63.9532ZM35.9247 65.4588L39.2705 67.7149V69.2349L35.1934 66.5869C35.4372 66.2093 35.6809 65.8364 35.9247 65.4588ZM34.9305 66.9836L39.2705 69.8036V71.2806L34.2183 68.1212C34.4525 67.7388 34.6915 67.3612 34.9305 66.9836ZM28.7455 78.1252L33.9698 80.6728H31.0302L28.1815 79.344C28.3679 78.9378 28.5543 78.5315 28.7503 78.1252H28.7455ZM27.9807 79.779L29.8974 80.6728H27.5697C27.7035 80.3717 27.8421 80.0754 27.9807 79.779ZM39.7533 123.237H58.2414C58.2988 138.957 63.9867 153.373 73.3885 164.577H39.7533V123.237ZM58.7194 123.237H80.8879V164.577H74.0146C64.5268 153.416 58.7767 138.986 58.7194 123.237ZM80.8879 165.055V171.531C78.5841 169.529 76.4188 167.363 74.4209 165.055H80.8879ZM81.3659 165.055H122.763V176.928H115.718V177.406H122.763V187.281C106.985 187.223 92.5362 181.454 81.3659 171.938V165.055ZM122.763 187.763V207.743H81.3659V172.569C92.5744 181.999 107.014 187.711 122.763 187.768V187.763ZM83.8275 208.221L81.3659 213.502V208.221H83.8275ZM80.8879 211.605V214.525L79.3488 217.823C78.9425 217.637 78.5363 217.45 78.13 217.255L80.8879 211.605ZM80.8879 215.658V218.526C80.5199 218.363 80.1518 218.191 79.7838 218.024L80.8879 215.658ZM165.365 216.901L165.925 218.163C165.738 218.249 165.552 218.335 165.365 218.421V216.906V216.901ZM166.36 217.962L165.365 215.725V212.647L167.583 217.403C167.177 217.594 166.771 217.776 166.36 217.962ZM174.471 213.818L171.369 208.221H172.793L175.632 213.139C175.245 213.364 174.863 213.593 174.471 213.818ZM176.043 212.9L173.343 208.226H174.801L177.195 212.207C176.813 212.441 176.431 212.671 176.043 212.9ZM177.602 211.954L175.36 208.221H176.856L178.749 211.246C178.371 211.485 177.989 211.72 177.606 211.954H177.602ZM179.145 210.988L177.415 208.221H178.95L180.269 210.252C179.896 210.501 179.518 210.744 179.141 210.983L179.145 210.988ZM180.67 209.994L179.518 208.221H181.096L181.779 209.234C181.411 209.487 181.043 209.741 180.67 209.989V209.994ZM182.176 208.966L181.674 208.221H183.247C182.893 208.474 182.534 208.718 182.176 208.966ZM172.616 164.582C182.018 153.378 187.706 138.962 187.763 123.241H206.925V164.582H172.616ZM216.815 80.6776L218.158 80.0801C218.249 80.2809 218.344 80.4768 218.43 80.6776H216.815ZM207.403 60.8177V38.8595H208.063C220.046 50.9714 229.132 65.1864 234.978 80.6776H218.951C215.864 73.6848 212.002 67.0314 207.403 60.8177ZM207.403 38.3815V38.1951C207.466 38.2572 207.533 38.3194 207.595 38.3815H207.403ZM206.925 38.3815H184.886C178.768 33.8885 172.229 30.1029 165.365 27.0678V11.0365C180.747 16.8487 194.876 25.8585 206.925 37.7267V38.3815ZM164.887 26.8623C151.92 21.2078 137.81 18.2205 123.241 18.187V3.35061C137.691 3.37929 151.738 5.95558 164.887 10.8596V26.8623ZM122.763 18.187C108.286 18.2205 94.2665 21.1696 81.3659 26.7571V10.764C94.4433 5.92213 108.41 3.37451 122.763 3.34583V18.1822V18.187ZM80.8879 26.9579C73.9334 30.0121 67.3086 33.8312 61.1188 38.3767H39.7533V37.0623C51.7218 25.457 65.6978 16.6431 80.8879 10.9409V26.9579ZM39.2753 38.3767H38.4102C38.697 38.0899 38.9885 37.8127 39.2753 37.5307V38.3767ZM39.2753 38.8547V59.9191C34.3808 66.3861 30.2894 73.3454 27.0535 80.6728H11.0221C16.8678 65.1864 25.9541 50.9666 37.937 38.8547H39.2705H39.2753ZM26.8479 81.1508C21.203 94.1087 18.2205 108.204 18.1918 122.759H3.35061C3.37929 108.324 5.9508 94.2856 10.8453 81.1508H26.8431H26.8479ZM29.7923 165.055L27.8469 165.92C27.7178 165.633 27.584 165.342 27.455 165.055H29.7923ZM30.9681 165.055H34.0176L28.6069 167.578C28.4157 167.172 28.2341 166.766 28.0476 166.355L30.9681 165.055ZM38.6444 172.841L39.2753 172.478V173.902L33.8025 177.191C33.5683 176.808 33.3388 176.426 33.1094 176.039L38.6444 172.841ZM39.2753 174.457V175.914L34.7584 178.739C34.5194 178.362 34.2852 177.979 34.051 177.597L39.2753 174.457ZM39.2753 176.478V177.974L35.7526 180.264C35.5041 179.891 35.2603 179.514 35.0213 179.136L39.2801 176.474L39.2753 176.478ZM39.2753 178.548V180.087L36.7707 181.779C36.5174 181.411 36.2641 181.043 36.0155 180.67L39.2801 178.553L39.2753 178.548ZM39.2753 180.665V182.248L37.8079 183.275C37.5498 182.912 37.2917 182.539 37.0384 182.171L39.2753 180.665ZM39.2753 182.831V184.461L38.8786 184.752C38.6109 184.394 38.3528 184.026 38.0899 183.662L39.2753 182.831ZM39.2753 185.053V185.292C39.2371 185.24 39.1988 185.192 39.1606 185.139L39.2753 185.053ZM39.7533 184.704L44.3132 181.392L44.0312 181.005L39.7485 184.116V182.501L43.3046 180.011L47.0424 177.391L46.77 176.999L39.7485 181.913V180.34L42.32 178.605L42.0523 178.209L39.7485 179.762V178.233L41.3641 177.186L41.106 176.784L39.7533 177.664V176.177L40.432 175.752L40.1787 175.346L39.7533 175.613V172.196L42.5972 170.556L42.3583 170.14L39.7533 171.641V165.045H73.79C75.9695 167.593 78.3403 169.968 80.8831 172.148V207.728H75.2143L77.1454 204.383L76.7295 204.144L74.6599 207.728H73.2307L73.3789 207.48L72.9678 207.231L72.6715 207.724H71.2089L71.9115 206.596L71.5052 206.342L70.6449 207.719H69.144L70.4632 205.688L70.0618 205.429L68.5752 207.719H67.0314L69.0293 204.76L68.6326 204.493L66.4578 207.719H64.8709L67.6097 203.804L70.229 200.066L69.8371 199.794L64.2878 207.719H62.6531L66.2093 202.824L65.8221 202.542L62.0748 207.7C61.7115 207.437 61.3482 207.179 60.985 206.911L64.8231 201.821L64.4408 201.534L60.6074 206.624C60.2489 206.357 59.8952 206.084 59.5367 205.812L63.4561 200.798L63.0785 200.501L59.1543 205.52C58.8006 205.248 58.4517 204.966 58.1028 204.684L62.1082 199.741L61.7354 199.44L57.73 204.387C57.381 204.105 57.0321 203.828 56.688 203.541L63.7094 195.172L63.3414 194.866L60.4066 198.365L56.3199 203.235C55.9758 202.949 55.6316 202.662 55.2923 202.37L59.465 197.571L59.1065 197.256L54.929 202.06C54.5897 201.768 54.2599 201.467 53.9253 201.171L58.1745 196.453L57.8208 196.133L53.5668 200.855C53.2322 200.559 52.9024 200.258 52.5726 199.957L56.9031 195.311L56.5541 194.986L52.2237 199.632C51.8939 199.326 51.5641 199.025 51.239 198.719L55.6508 194.149L55.3066 193.815L50.8901 198.384C50.5651 198.073 50.2496 197.758 49.9294 197.447L54.4176 192.959L57.6439 189.733L57.3046 189.393L49.5853 197.113C49.4658 196.993 49.3415 196.878 49.222 196.759C49.026 196.563 48.8348 196.362 48.6389 196.161L53.2035 191.75L52.8737 191.406L48.3043 195.817C47.9936 195.497 47.6733 195.177 47.3674 194.857L52.0134 190.521L51.6883 190.172L47.0424 194.508C46.7365 194.183 46.4306 193.853 46.1295 193.523L50.8471 189.274L50.5269 188.92L45.8045 193.174C45.5033 192.844 45.207 192.505 44.9106 192.17L49.7047 188.002L49.3893 187.644L44.5952 191.812C44.2988 191.477 44.0025 191.138 43.7109 190.799L48.5815 186.712L52.0803 183.777L51.7744 183.409L43.405 190.43C43.1135 190.091 42.8267 189.747 42.5399 189.403L47.4822 185.402L47.181 185.029L42.234 189.035C41.9472 188.686 41.6747 188.337 41.3927 187.988L46.4067 184.073L46.1104 183.696L41.0964 187.615C40.8192 187.266 40.5419 186.913 40.2695 186.559L45.3552 182.73L45.0684 182.348L39.9827 186.181C39.911 186.086 39.8345 185.99 39.7628 185.895V184.68L39.7533 184.704ZM48.8874 197.117C52.7781 201.008 56.927 204.55 61.2861 207.743H39.7533V186.707C42.5447 190.344 45.5894 193.824 48.8874 197.117ZM81.3659 219.248C94.2665 224.83 108.29 227.784 122.763 227.818V242.654C108.405 242.626 94.4433 240.083 81.3659 235.236V219.248ZM123.241 227.818C137.81 227.784 151.92 224.797 164.887 219.143V235.145C151.738 240.049 137.691 242.626 123.241 242.654V227.818ZM184.719 207.743C189.078 204.555 193.227 201.013 197.117 197.117C200.678 193.556 203.948 189.776 206.925 185.823V207.743H184.719ZM207.403 183.696L207.724 183.93C207.619 184.078 207.509 184.226 207.403 184.375V183.696ZM208.006 183.543L207.403 183.108V181.483L208.78 182.448C208.522 182.816 208.264 183.18 208.006 183.548V183.543ZM209.052 182.052L207.403 180.9V179.322L209.812 180.947C209.564 181.32 209.306 181.688 209.052 182.056V182.052ZM210.075 180.546L207.403 178.744V177.21L210.807 179.423C210.563 179.8 210.319 180.173 210.075 180.551V180.546ZM211.07 179.021L207.403 176.641V175.145L211.782 177.879C211.547 178.261 211.308 178.639 211.07 179.016V179.021ZM212.035 177.477L207.408 174.586V173.128L212.738 176.33C212.508 176.713 212.274 177.095 212.04 177.477H212.035ZM212.977 175.919L207.499 172.626L207.408 172.779V171.149L213.655 174.758C213.431 175.145 213.206 175.532 212.977 175.919ZM218.024 166.231L215.529 165.069H218.55C218.378 165.456 218.201 165.843 218.024 166.231ZM227.818 123.251H242.654C242.626 137.585 240.087 151.533 235.26 164.591H219.276C224.845 151.705 227.789 137.705 227.818 123.251ZM227.818 122.773C227.784 108.219 224.802 94.1231 219.162 81.1651H235.16C240.054 94.2999 242.626 108.338 242.654 122.773H227.818ZM10.9218 165.055H26.934C30.189 172.482 34.3187 179.528 39.2705 186.076V207.738H38.5249C38.4819 207.695 38.4341 207.652 38.391 207.604C26.1118 195.325 16.8391 180.842 10.9218 165.055ZM207.609 207.604C207.566 207.647 207.518 207.69 207.475 207.738H207.403V185.182C212.059 178.892 215.964 172.143 219.066 165.055H235.078C229.161 180.842 219.888 195.325 207.609 207.604Z" fill="black"/>
<path d="M65.7456 77.4895C66.7637 77.4895 67.5906 76.6626 67.5906 75.6445C67.5906 74.6265 66.7637 73.7996 65.7456 73.7996C64.7275 73.7996 63.9006 74.6265 63.9006 75.6445C63.9006 76.6626 64.7275 77.4895 65.7456 77.4895Z" fill="white"/>
<path d="M51.0718 90.8728C50.0776 90.6482 49.0929 91.2695 48.8683 92.2637C48.6436 93.2579 49.265 94.2426 50.2592 94.4672C51.2534 94.6918 52.238 94.0705 52.4627 93.0763C52.6873 92.0821 52.0659 91.0975 51.0718 90.8728Z" fill="white"/>
<path d="M51.4446 78.2829C52.4388 78.5075 53.4234 77.8862 53.648 76.892C53.8727 75.8978 53.2513 74.9131 52.2571 74.6885C51.2629 74.4638 50.2783 75.0852 50.0537 76.0794C49.829 77.0736 50.4504 78.0582 51.4446 78.2829Z" fill="white"/>
</g>
<defs>
<clipPath id="clip0_19_75">
<rect width="246" height="246" fill="white"/>
</clipPath>
</defs>
</svg>
